%TF.GenerationSoftware,KiCad,Pcbnew,(6.0.1)*%
%TF.CreationDate,2022-03-08T02:05:38-07:00*%
%TF.ProjectId,ESP32-PICO-D4-BreakoutBoard,45535033-322d-4504-9943-4f2d44342d42,rev?*%
%TF.SameCoordinates,Original*%
%TF.FileFunction,Copper,L1,Top*%
%TF.FilePolarity,Positive*%
%FSLAX46Y46*%
G04 Gerber Fmt 4.6, Leading zero omitted, Abs format (unit mm)*
G04 Created by KiCad (PCBNEW (6.0.1)) date 2022-03-08 02:05:38*
%MOMM*%
%LPD*%
G01*
G04 APERTURE LIST*
G04 Aperture macros list*
%AMRoundRect*
0 Rectangle with rounded corners*
0 $1 Rounding radius*
0 $2 $3 $4 $5 $6 $7 $8 $9 X,Y pos of 4 corners*
0 Add a 4 corners polygon primitive as box body*
4,1,4,$2,$3,$4,$5,$6,$7,$8,$9,$2,$3,0*
0 Add four circle primitives for the rounded corners*
1,1,$1+$1,$2,$3*
1,1,$1+$1,$4,$5*
1,1,$1+$1,$6,$7*
1,1,$1+$1,$8,$9*
0 Add four rect primitives between the rounded corners*
20,1,$1+$1,$2,$3,$4,$5,0*
20,1,$1+$1,$4,$5,$6,$7,0*
20,1,$1+$1,$6,$7,$8,$9,0*
20,1,$1+$1,$8,$9,$2,$3,0*%
G04 Aperture macros list end*
%TA.AperFunction,SMDPad,CuDef*%
%ADD10R,0.500000X1.075000*%
%TD*%
%TA.AperFunction,SMDPad,CuDef*%
%ADD11RoundRect,0.014000X-0.211000X-0.161000X0.211000X-0.161000X0.211000X0.161000X-0.211000X0.161000X0*%
%TD*%
%TA.AperFunction,SMDPad,CuDef*%
%ADD12RoundRect,0.014000X0.161000X-0.211000X0.161000X0.211000X-0.161000X0.211000X-0.161000X-0.211000X0*%
%TD*%
%TA.AperFunction,SMDPad,CuDef*%
%ADD13RoundRect,0.014000X0.211000X0.161000X-0.211000X0.161000X-0.211000X-0.161000X0.211000X-0.161000X0*%
%TD*%
%TA.AperFunction,SMDPad,CuDef*%
%ADD14RoundRect,0.014000X-0.161000X0.211000X-0.161000X-0.211000X0.161000X-0.211000X0.161000X0.211000X0*%
%TD*%
%TA.AperFunction,SMDPad,CuDef*%
%ADD15R,5.400000X5.400000*%
%TD*%
%TA.AperFunction,SMDPad,CuDef*%
%ADD16R,1.000000X0.450000*%
%TD*%
%TA.AperFunction,SMDPad,CuDef*%
%ADD17RoundRect,0.200000X0.200000X0.275000X-0.200000X0.275000X-0.200000X-0.275000X0.200000X-0.275000X0*%
%TD*%
%TA.AperFunction,SMDPad,CuDef*%
%ADD18RoundRect,0.225000X-0.225000X-0.250000X0.225000X-0.250000X0.225000X0.250000X-0.225000X0.250000X0*%
%TD*%
%TA.AperFunction,SMDPad,CuDef*%
%ADD19RoundRect,0.200000X0.275000X-0.200000X0.275000X0.200000X-0.275000X0.200000X-0.275000X-0.200000X0*%
%TD*%
%TA.AperFunction,SMDPad,CuDef*%
%ADD20RoundRect,0.225000X-0.250000X0.225000X-0.250000X-0.225000X0.250000X-0.225000X0.250000X0.225000X0*%
%TD*%
%TA.AperFunction,SMDPad,CuDef*%
%ADD21R,0.600000X1.100000*%
%TD*%
%TA.AperFunction,SMDPad,CuDef*%
%ADD22RoundRect,0.218750X0.256250X-0.218750X0.256250X0.218750X-0.256250X0.218750X-0.256250X-0.218750X0*%
%TD*%
%TA.AperFunction,SMDPad,CuDef*%
%ADD23R,2.000000X0.800000*%
%TD*%
%TA.AperFunction,ComponentPad*%
%ADD24C,1.348000*%
%TD*%
%TA.AperFunction,SMDPad,CuDef*%
%ADD25R,0.650000X0.400000*%
%TD*%
%TA.AperFunction,SMDPad,CuDef*%
%ADD26RoundRect,0.200000X-0.200000X-0.275000X0.200000X-0.275000X0.200000X0.275000X-0.200000X0.275000X0*%
%TD*%
%TA.AperFunction,SMDPad,CuDef*%
%ADD27RoundRect,0.225000X0.225000X0.250000X-0.225000X0.250000X-0.225000X-0.250000X0.225000X-0.250000X0*%
%TD*%
%TA.AperFunction,ComponentPad*%
%ADD28R,1.700000X1.700000*%
%TD*%
%TA.AperFunction,ComponentPad*%
%ADD29O,1.700000X1.700000*%
%TD*%
%TA.AperFunction,SMDPad,CuDef*%
%ADD30RoundRect,0.062500X0.337500X0.062500X-0.337500X0.062500X-0.337500X-0.062500X0.337500X-0.062500X0*%
%TD*%
%TA.AperFunction,SMDPad,CuDef*%
%ADD31RoundRect,0.062500X0.062500X0.337500X-0.062500X0.337500X-0.062500X-0.337500X0.062500X-0.337500X0*%
%TD*%
%TA.AperFunction,SMDPad,CuDef*%
%ADD32R,3.350000X3.350000*%
%TD*%
%TA.AperFunction,ConnectorPad*%
%ADD33R,0.500000X0.500000*%
%TD*%
%TA.AperFunction,ComponentPad*%
%ADD34R,1.000000X0.600000*%
%TD*%
%TA.AperFunction,SMDPad,CuDef*%
%ADD35R,0.500000X1.000000*%
%TD*%
%TA.AperFunction,SMDPad,CuDef*%
%ADD36R,0.800000X0.500000*%
%TD*%
%TA.AperFunction,SMDPad,CuDef*%
%ADD37R,1.500000X2.000000*%
%TD*%
%TA.AperFunction,SMDPad,CuDef*%
%ADD38R,3.800000X2.000000*%
%TD*%
%TA.AperFunction,SMDPad,CuDef*%
%ADD39R,0.600000X1.450000*%
%TD*%
%TA.AperFunction,SMDPad,CuDef*%
%ADD40R,0.300000X1.450000*%
%TD*%
%TA.AperFunction,ComponentPad*%
%ADD41O,1.050000X2.100000*%
%TD*%
%TA.AperFunction,SMDPad,CuDef*%
%ADD42RoundRect,0.200000X-0.275000X0.200000X-0.275000X-0.200000X0.275000X-0.200000X0.275000X0.200000X0*%
%TD*%
%TA.AperFunction,ViaPad*%
%ADD43C,0.800000*%
%TD*%
%TA.AperFunction,Conductor*%
%ADD44C,0.250000*%
%TD*%
%TA.AperFunction,Conductor*%
%ADD45C,0.500000*%
%TD*%
%TA.AperFunction,Conductor*%
%ADD46C,0.300000*%
%TD*%
%TA.AperFunction,Conductor*%
%ADD47C,0.200000*%
%TD*%
%TA.AperFunction,Conductor*%
%ADD48C,0.350000*%
%TD*%
%TA.AperFunction,Conductor*%
%ADD49C,1.000000*%
%TD*%
%TA.AperFunction,Conductor*%
%ADD50C,0.750000*%
%TD*%
G04 APERTURE END LIST*
%TO.C,AE1*%
G36*
X126610000Y-127900000D02*
G01*
X126610000Y-125260000D01*
X124610000Y-125260000D01*
X124610000Y-127900000D01*
X121910000Y-127900000D01*
X121910000Y-125260000D01*
X119910000Y-125260000D01*
X119910000Y-127900000D01*
X117210000Y-127900000D01*
X117210000Y-123460000D01*
X117710000Y-123460000D01*
X117710000Y-127400000D01*
X119410000Y-127400000D01*
X119410000Y-124760000D01*
X122410000Y-124760000D01*
X122410000Y-127400000D01*
X124110000Y-127400000D01*
X124110000Y-124760000D01*
X127110000Y-124760000D01*
X127110000Y-127400000D01*
X128810000Y-127400000D01*
X128810000Y-122500000D01*
X129310000Y-122500000D01*
X129310000Y-127400000D01*
X130710000Y-127400000D01*
X130710000Y-122758158D01*
X131011778Y-122758158D01*
X131020218Y-122806417D01*
X131037112Y-122838643D01*
X131072372Y-122871313D01*
X131117682Y-122891408D01*
X131167267Y-122897982D01*
X131215353Y-122890092D01*
X131248245Y-122873186D01*
X131283185Y-122836416D01*
X131302847Y-122791622D01*
X131307583Y-122743215D01*
X131297742Y-122695605D01*
X131273674Y-122653203D01*
X131235731Y-122620419D01*
X131227819Y-122616065D01*
X131185156Y-122603957D01*
X131136637Y-122604700D01*
X131091122Y-122617600D01*
X131072511Y-122628213D01*
X131038868Y-122663447D01*
X131018309Y-122708632D01*
X131011778Y-122758158D01*
X130710000Y-122758158D01*
X130710000Y-122500000D01*
X131610000Y-122500000D01*
X131610000Y-127900000D01*
X126610000Y-127900000D01*
G37*
%TD*%
D10*
%TO.P,D1,1,K*%
%TO.N,P1*%
X131900000Y-95562000D03*
%TO.P,D1,2,A*%
%TO.N,Net-(D1-Pad2)*%
X131900000Y-93238000D03*
%TD*%
D11*
%TO.P,IC1,1,VDDA_1*%
%TO.N,+3V3*%
X129027500Y-114975000D03*
%TO.P,IC1,2,LNA_IN*%
%TO.N,Net-(C3-Pad2)*%
X129027500Y-114475000D03*
%TO.P,IC1,3,VDDA3P3_1*%
%TO.N,+3V3*%
X129027500Y-113975000D03*
%TO.P,IC1,4,VDDA3P3_2*%
X129027500Y-113475000D03*
%TO.P,IC1,5,SENSOR_VP*%
%TO.N,unconnected-(IC1-Pad5)*%
X129027500Y-112975000D03*
%TO.P,IC1,6,SENSOR_CAPP*%
%TO.N,unconnected-(IC1-Pad6)*%
X129027500Y-112475000D03*
%TO.P,IC1,7,SENSOR_CAPN*%
%TO.N,unconnected-(IC1-Pad7)*%
X129027500Y-111975000D03*
%TO.P,IC1,8,SENSOR_VN*%
%TO.N,unconnected-(IC1-Pad8)*%
X129027500Y-111475000D03*
%TO.P,IC1,9,EN*%
%TO.N,Net-(IC1-Pad9)*%
X129027500Y-110975000D03*
%TO.P,IC1,10,IO34*%
%TO.N,IO34*%
X129027500Y-110475000D03*
%TO.P,IC1,11,IO35*%
%TO.N,IO35*%
X129027500Y-109975000D03*
%TO.P,IC1,12,IO32*%
%TO.N,unconnected-(IC1-Pad12)*%
X129027500Y-109475000D03*
D12*
%TO.P,IC1,13,IO33*%
%TO.N,unconnected-(IC1-Pad13)*%
X128512500Y-108960000D03*
%TO.P,IC1,14,IO25*%
%TO.N,GPIO25*%
X128012500Y-108960000D03*
%TO.P,IC1,15,IO26*%
%TO.N,GPIO26*%
X127512500Y-108960000D03*
%TO.P,IC1,16,IO27*%
%TO.N,GPI027*%
X127012500Y-108960000D03*
%TO.P,IC1,17,IO14*%
%TO.N,GPI014*%
X126512500Y-108960000D03*
%TO.P,IC1,18,IO12*%
%TO.N,GPI012*%
X126012500Y-108960000D03*
%TO.P,IC1,19,VDD3P3_RTC*%
%TO.N,+3V3*%
X125512500Y-108960000D03*
%TO.P,IC1,20,IO13*%
%TO.N,GPI013*%
X125012500Y-108960000D03*
%TO.P,IC1,21,IO15*%
%TO.N,GPI015*%
X124512500Y-108960000D03*
%TO.P,IC1,22,IO2*%
%TO.N,unconnected-(IC1-Pad22)*%
X124012500Y-108960000D03*
%TO.P,IC1,23,IO0*%
%TO.N,GPIO0*%
X123512500Y-108960000D03*
%TO.P,IC1,24,IO4*%
%TO.N,GPIO4*%
X123012500Y-108960000D03*
D13*
%TO.P,IC1,25,IO16*%
%TO.N,unconnected-(IC1-Pad25)*%
X122497500Y-109475000D03*
%TO.P,IC1,26,VDD_SDIO_NC*%
%TO.N,unconnected-(IC1-Pad26)*%
X122497500Y-109975000D03*
%TO.P,IC1,27,IO17*%
%TO.N,unconnected-(IC1-Pad27)*%
X122497500Y-110475000D03*
%TO.P,IC1,28,SD2*%
%TO.N,unconnected-(IC1-Pad28)*%
X122497500Y-110975000D03*
%TO.P,IC1,29,SD3*%
%TO.N,unconnected-(IC1-Pad29)*%
X122497500Y-111475000D03*
%TO.P,IC1,30,CMD*%
%TO.N,unconnected-(IC1-Pad30)*%
X122497500Y-111975000D03*
%TO.P,IC1,31,CLK*%
%TO.N,unconnected-(IC1-Pad31)*%
X122497500Y-112475000D03*
%TO.P,IC1,32,SD0*%
%TO.N,unconnected-(IC1-Pad32)*%
X122497500Y-112975000D03*
%TO.P,IC1,33,SD1*%
%TO.N,unconnected-(IC1-Pad33)*%
X122497500Y-113475000D03*
%TO.P,IC1,34,IO5*%
%TO.N,unconnected-(IC1-Pad34)*%
X122497500Y-113975000D03*
%TO.P,IC1,35,IO18*%
%TO.N,GPIO18*%
X122497500Y-114475000D03*
%TO.P,IC1,36,IO23*%
%TO.N,GPIO23*%
X122497500Y-114975000D03*
D14*
%TO.P,IC1,37,VDD3P3_CPU*%
%TO.N,+3V3*%
X123012500Y-115490000D03*
%TO.P,IC1,38,IO19*%
%TO.N,GPIO19*%
X123512500Y-115490000D03*
%TO.P,IC1,39,IO22*%
%TO.N,GPIO22*%
X124012500Y-115490000D03*
%TO.P,IC1,40,U0RXD*%
%TO.N,TXRX-*%
X124512500Y-115490000D03*
%TO.P,IC1,41,U0TXD*%
%TO.N,TXRX+*%
X125012500Y-115490000D03*
%TO.P,IC1,42,IO21*%
%TO.N,GPIO21*%
X125512500Y-115490000D03*
%TO.P,IC1,43,VDDA_2*%
%TO.N,+3V3*%
X126012500Y-115490000D03*
%TO.P,IC1,44,XTAL_N_NC*%
%TO.N,unconnected-(IC1-Pad44)*%
X126512500Y-115490000D03*
%TO.P,IC1,45,XTAL_P_NC*%
%TO.N,unconnected-(IC1-Pad45)*%
X127012500Y-115490000D03*
%TO.P,IC1,46,VDDA_3*%
%TO.N,+3V3*%
X127512500Y-115490000D03*
%TO.P,IC1,47,CAP2_NC*%
%TO.N,unconnected-(IC1-Pad47)*%
X128012500Y-115490000D03*
%TO.P,IC1,48,CAP1_NC*%
%TO.N,unconnected-(IC1-Pad48)*%
X128512500Y-115490000D03*
D15*
%TO.P,IC1,49,GND*%
%TO.N,GND*%
X125762500Y-112225000D03*
%TD*%
D16*
%TO.P,Q1,1,EMITTER_TR1*%
%TO.N,P1*%
X127110000Y-96475000D03*
%TO.P,Q1,2,BASE_TR1*%
%TO.N,P2*%
X127110000Y-97125000D03*
%TO.P,Q1,3,COLLECTOR_TR2*%
%TO.N,Net-(Q1-Pad3)*%
X127110000Y-97775000D03*
%TO.P,Q1,4,EMITTER_TR2*%
%TO.N,VCC*%
X129010000Y-97775000D03*
%TO.P,Q1,5,BASE_TR2*%
%TO.N,P2*%
X129010000Y-97125000D03*
%TO.P,Q1,6,COLLECTOR_TR1*%
X129010000Y-96475000D03*
%TD*%
D17*
%TO.P,R2,1*%
%TO.N,EN*%
X138534022Y-112125000D03*
%TO.P,R2,2*%
%TO.N,Net-(IC1-Pad9)*%
X136884022Y-112125000D03*
%TD*%
D18*
%TO.P,C3,1*%
%TO.N,GND*%
X127510000Y-118250000D03*
%TO.P,C3,2*%
%TO.N,Net-(C3-Pad2)*%
X129060000Y-118250000D03*
%TD*%
D19*
%TO.P,R8,1*%
%TO.N,Net-(D3-Pad2)*%
X120050000Y-111775000D03*
%TO.P,R8,2*%
%TO.N,TXRX-*%
X120050000Y-110125000D03*
%TD*%
D20*
%TO.P,C2,1*%
%TO.N,GND*%
X140000000Y-112225000D03*
%TO.P,C2,2*%
%TO.N,EN*%
X140000000Y-113775000D03*
%TD*%
D21*
%TO.P,Q3,1,G*%
%TO.N,Net-(Q1-Pad3)*%
X127360000Y-103100000D03*
%TO.P,Q3,2,S*%
%TO.N,VCC*%
X129260000Y-103100000D03*
%TO.P,Q3,3,D*%
%TO.N,P1*%
X128310000Y-100900000D03*
%TD*%
D22*
%TO.P,D4,1,K*%
%TO.N,GND*%
X118500000Y-114787500D03*
%TO.P,D4,2,A*%
%TO.N,Net-(D4-Pad2)*%
X118500000Y-113212500D03*
%TD*%
D23*
%TO.P,SW2,1,A*%
%TO.N,EN*%
X140000000Y-108850000D03*
%TO.P,SW2,2,B*%
%TO.N,GND*%
X140000000Y-104650000D03*
%TD*%
D24*
%TO.P,AE2,1*%
%TO.N,Net-(SW3-PadC1)*%
X139847500Y-117000000D03*
%TO.P,AE2,S1*%
%TO.N,GND*%
X138577500Y-118270000D03*
%TO.P,AE2,S2*%
X138577500Y-115730000D03*
%TO.P,AE2,S3*%
X141117500Y-115730000D03*
%TO.P,AE2,S4*%
X141117500Y-118270000D03*
%TD*%
D17*
%TO.P,R1,1*%
%TO.N,EN*%
X138534022Y-113675000D03*
%TO.P,R1,2*%
%TO.N,+3V3*%
X136884022Y-113675000D03*
%TD*%
D25*
%TO.P,Q2,1,E1*%
%TO.N,RTS*%
X127510000Y-104800000D03*
%TO.P,Q2,2,B1*%
%TO.N,DTR*%
X127510000Y-105450000D03*
%TO.P,Q2,3,C2*%
%TO.N,GPIO0*%
X127510000Y-106100000D03*
%TO.P,Q2,4,E2*%
%TO.N,DTR*%
X129410000Y-106100000D03*
%TO.P,Q2,5,B2*%
%TO.N,RTS*%
X129410000Y-105450000D03*
%TO.P,Q2,6,C1*%
%TO.N,EN*%
X129410000Y-104800000D03*
%TD*%
D18*
%TO.P,C9,1*%
%TO.N,GND*%
X122485000Y-99000000D03*
%TO.P,C9,2*%
%TO.N,+3V3*%
X124035000Y-99000000D03*
%TD*%
D26*
%TO.P,R5,1*%
%TO.N,P2*%
X130985000Y-101425000D03*
%TO.P,R5,2*%
%TO.N,GND*%
X132635000Y-101425000D03*
%TD*%
D27*
%TO.P,C5,1*%
%TO.N,GND*%
X132085000Y-114875000D03*
%TO.P,C5,2*%
%TO.N,+3V3*%
X130535000Y-114875000D03*
%TD*%
D28*
%TO.P,J1,1,Pin_1*%
%TO.N,GPIO0*%
X116009022Y-104450000D03*
D29*
%TO.P,J1,2,Pin_2*%
%TO.N,GPIO21*%
X116009022Y-106990000D03*
%TO.P,J1,3,Pin_3*%
%TO.N,GPIO22*%
X116009022Y-109530000D03*
%TO.P,J1,4,Pin_4*%
%TO.N,GPIO19*%
X116009022Y-112070000D03*
%TD*%
D26*
%TO.P,R4,1*%
%TO.N,TXRX-*%
X119425000Y-108650000D03*
%TO.P,R4,2*%
%TO.N,Net-(U2-Pad26)*%
X121075000Y-108650000D03*
%TD*%
D30*
%TO.P,U2,1,~{DCD}*%
%TO.N,unconnected-(U2-Pad1)*%
X125325000Y-104775000D03*
%TO.P,U2,2,~{RI}/CLK*%
%TO.N,unconnected-(U2-Pad2)*%
X125325000Y-104275000D03*
%TO.P,U2,3,GND*%
%TO.N,GND*%
X125325000Y-103775000D03*
%TO.P,U2,4,D+*%
%TO.N,D+*%
X125325000Y-103275000D03*
%TO.P,U2,5,D-*%
%TO.N,D-*%
X125325000Y-102775000D03*
%TO.P,U2,6,VDD*%
%TO.N,+3V3*%
X125325000Y-102275000D03*
%TO.P,U2,7,VREGIN*%
X125325000Y-101775000D03*
D31*
%TO.P,U2,8,VBUS*%
%TO.N,P1*%
X124375000Y-100825000D03*
%TO.P,U2,9,~{RST}*%
%TO.N,unconnected-(U2-Pad9)*%
X123875000Y-100825000D03*
%TO.P,U2,10,NC*%
%TO.N,unconnected-(U2-Pad10)*%
X123375000Y-100825000D03*
%TO.P,U2,11,~{SUSPEND}*%
%TO.N,unconnected-(U2-Pad11)*%
X122875000Y-100825000D03*
%TO.P,U2,12,SUSPEND*%
%TO.N,unconnected-(U2-Pad12)*%
X122375000Y-100825000D03*
%TO.P,U2,13,CHREN*%
%TO.N,unconnected-(U2-Pad13)*%
X121875000Y-100825000D03*
%TO.P,U2,14,CHR1*%
%TO.N,unconnected-(U2-Pad14)*%
X121375000Y-100825000D03*
D30*
%TO.P,U2,15,CHR0*%
%TO.N,unconnected-(U2-Pad15)*%
X120425000Y-101775000D03*
%TO.P,U2,16,~{WAKEUP}/GPIO.3*%
%TO.N,unconnected-(U2-Pad16)*%
X120425000Y-102275000D03*
%TO.P,U2,17,RS485/GPIO.2*%
%TO.N,unconnected-(U2-Pad17)*%
X120425000Y-102775000D03*
%TO.P,U2,18,~{RXT}/GPIO.1*%
%TO.N,unconnected-(U2-Pad18)*%
X120425000Y-103275000D03*
%TO.P,U2,19,~{TXT}/GPIO.0*%
%TO.N,unconnected-(U2-Pad19)*%
X120425000Y-103775000D03*
%TO.P,U2,20,GPIO.6*%
%TO.N,unconnected-(U2-Pad20)*%
X120425000Y-104275000D03*
%TO.P,U2,21,GPIO.5*%
%TO.N,unconnected-(U2-Pad21)*%
X120425000Y-104775000D03*
D31*
%TO.P,U2,22,GPIO.4*%
%TO.N,unconnected-(U2-Pad22)*%
X121375000Y-105725000D03*
%TO.P,U2,23,~{CTS}*%
%TO.N,unconnected-(U2-Pad23)*%
X121875000Y-105725000D03*
%TO.P,U2,24,~{RTS}*%
%TO.N,RTS*%
X122375000Y-105725000D03*
%TO.P,U2,25,RXD*%
%TO.N,Net-(U2-Pad25)*%
X122875000Y-105725000D03*
%TO.P,U2,26,TXD*%
%TO.N,Net-(U2-Pad26)*%
X123375000Y-105725000D03*
%TO.P,U2,27,~{DSR}*%
%TO.N,unconnected-(U2-Pad27)*%
X123875000Y-105725000D03*
%TO.P,U2,28,~{DTR}*%
%TO.N,DTR*%
X124375000Y-105725000D03*
D32*
%TO.P,U2,29,GND*%
%TO.N,GND*%
X122875000Y-103275000D03*
%TD*%
D27*
%TO.P,C6,1*%
%TO.N,GND*%
X132085000Y-116500000D03*
%TO.P,C6,2*%
%TO.N,+3V3*%
X130535000Y-116500000D03*
%TD*%
D23*
%TO.P,SW1,1,A*%
%TO.N,GPIO0*%
X118250000Y-116650000D03*
%TO.P,SW1,2,B*%
%TO.N,GND*%
X118250000Y-120850000D03*
%TD*%
D18*
%TO.P,C7,1*%
%TO.N,GND*%
X134059022Y-102425000D03*
%TO.P,C7,2*%
%TO.N,+3V3*%
X135609022Y-102425000D03*
%TD*%
D22*
%TO.P,D3,1,K*%
%TO.N,GND*%
X120050000Y-114787500D03*
%TO.P,D3,2,A*%
%TO.N,Net-(D3-Pad2)*%
X120050000Y-113212500D03*
%TD*%
D33*
%TO.P,AE1,1*%
%TO.N,Net-(AE1-Pad1)*%
X129060000Y-122750000D03*
D34*
%TO.P,AE1,2*%
%TO.N,GND*%
X131160000Y-122750000D03*
%TD*%
D26*
%TO.P,R6,1*%
%TO.N,TXRX+*%
X119425000Y-107200000D03*
%TO.P,R6,2*%
%TO.N,Net-(U2-Pad25)*%
X121075000Y-107200000D03*
%TD*%
D35*
%TO.P,SW3,A1,NC*%
%TO.N,Net-(AE1-Pad1)*%
X135310000Y-120400000D03*
%TO.P,SW3,B1,COM*%
%TO.N,ANT*%
X138310000Y-120400000D03*
%TO.P,SW3,C1,NO*%
%TO.N,Net-(SW3-PadC1)*%
X139810000Y-120400000D03*
D36*
%TO.P,SW3,MP1,MP1*%
%TO.N,unconnected-(SW3-PadMP1)*%
X141010000Y-121200000D03*
%TO.P,SW3,MP2,MP2*%
%TO.N,unconnected-(SW3-PadMP2)*%
X141010000Y-123300000D03*
%TO.P,SW3,MP3,MP3*%
%TO.N,unconnected-(SW3-PadMP3)*%
X134110000Y-123300000D03*
%TO.P,SW3,MP4,MP4*%
%TO.N,unconnected-(SW3-PadMP4)*%
X134110000Y-121200000D03*
%TD*%
D18*
%TO.P,C8,1*%
%TO.N,GND*%
X122475000Y-97500000D03*
%TO.P,C8,2*%
%TO.N,+3V3*%
X124025000Y-97500000D03*
%TD*%
D19*
%TO.P,R7,1*%
%TO.N,VCC*%
X135600000Y-94775000D03*
%TO.P,R7,2*%
%TO.N,Net-(D2-Pad1)*%
X135600000Y-93125000D03*
%TD*%
D17*
%TO.P,R3,1*%
%TO.N,GND*%
X129185000Y-99275000D03*
%TO.P,R3,2*%
%TO.N,Net-(Q1-Pad3)*%
X127535000Y-99275000D03*
%TD*%
%TO.P,FB1,1*%
%TO.N,ANT*%
X132135000Y-118250000D03*
%TO.P,FB1,2*%
%TO.N,Net-(C3-Pad2)*%
X130485000Y-118250000D03*
%TD*%
D22*
%TO.P,D2,1,K*%
%TO.N,Net-(D2-Pad1)*%
X134150000Y-94737500D03*
%TO.P,D2,2,A*%
%TO.N,GND*%
X134150000Y-93162500D03*
%TD*%
D28*
%TO.P,J2,1,Pin_1*%
%TO.N,VCC*%
X135234022Y-97285000D03*
D29*
%TO.P,J2,2,Pin_2*%
%TO.N,+3V3*%
X135234022Y-99825000D03*
%TO.P,J2,3,Pin_3*%
%TO.N,EN*%
X137774022Y-97285000D03*
%TO.P,J2,4,Pin_4*%
%TO.N,IO35*%
X137774022Y-99825000D03*
%TO.P,J2,5,Pin_5*%
%TO.N,IO34*%
X140314022Y-97285000D03*
%TO.P,J2,6,Pin_6*%
%TO.N,GND*%
X140314022Y-99825000D03*
%TD*%
D37*
%TO.P,U1,1,ADJ*%
%TO.N,GND*%
X136360000Y-105350000D03*
%TO.P,U1,2,VO*%
%TO.N,+3V3*%
X134060000Y-105350000D03*
D38*
X134060000Y-111650000D03*
D37*
%TO.P,U1,3,VI*%
%TO.N,VCC*%
X131760000Y-105350000D03*
%TD*%
D39*
%TO.P,USB1,A1B12,GND*%
%TO.N,GND*%
X128750000Y-94595000D03*
%TO.P,USB1,A4B9,VBUS*%
%TO.N,Net-(D1-Pad2)*%
X127950000Y-94595000D03*
D40*
%TO.P,USB1,A5,CC1*%
%TO.N,unconnected-(USB1-PadA5)*%
X126750000Y-94595000D03*
%TO.P,USB1,A6,DP1*%
%TO.N,D+*%
X125750000Y-94595000D03*
%TO.P,USB1,A7,DN1*%
%TO.N,D-*%
X125250000Y-94595000D03*
%TO.P,USB1,A8,SBU1*%
%TO.N,unconnected-(USB1-PadA8)*%
X124250000Y-94595000D03*
D39*
%TO.P,USB1,B1A12,GND*%
%TO.N,GND*%
X122250000Y-94595000D03*
%TO.P,USB1,B4A9,VBUS*%
%TO.N,Net-(D1-Pad2)*%
X123050000Y-94595000D03*
D40*
%TO.P,USB1,B5,CC2*%
%TO.N,unconnected-(USB1-PadB5)*%
X123750000Y-94595000D03*
%TO.P,USB1,B6,DP2*%
%TO.N,unconnected-(USB1-PadB6)*%
X124750000Y-94595000D03*
%TO.P,USB1,B7,DN2*%
%TO.N,unconnected-(USB1-PadB7)*%
X126250000Y-94595000D03*
%TO.P,USB1,B8,SBU2*%
%TO.N,unconnected-(USB1-PadB8)*%
X127250000Y-94595000D03*
D41*
%TO.P,USB1,S1,SHIELD*%
%TO.N,GND*%
X129820000Y-93680000D03*
%TO.P,USB1,S2,SHIELD*%
X121180000Y-93680000D03*
%TO.P,USB1,S3,SHIELD*%
X129820000Y-89500000D03*
%TO.P,USB1,S4,SHIELD*%
X121180000Y-89500000D03*
%TD*%
D42*
%TO.P,R9,1*%
%TO.N,TXRX+*%
X118500000Y-110125000D03*
%TO.P,R9,2*%
%TO.N,Net-(D4-Pad2)*%
X118500000Y-111775000D03*
%TD*%
D27*
%TO.P,C4,1*%
%TO.N,GND*%
X132585000Y-103250000D03*
%TO.P,C4,2*%
%TO.N,VCC*%
X131035000Y-103250000D03*
%TD*%
D18*
%TO.P,C1,1*%
%TO.N,GND*%
X130535000Y-119775000D03*
%TO.P,C1,2*%
%TO.N,ANT*%
X132085000Y-119775000D03*
%TD*%
D43*
%TO.N,EN*%
X138500000Y-110250000D03*
X136661636Y-108597386D03*
%TO.N,+3V3*%
X134060000Y-110250000D03*
X122813000Y-116250000D03*
X131740288Y-108475946D03*
X125490000Y-100930000D03*
X129400000Y-116300000D03*
X130535000Y-113200000D03*
X134060000Y-106950000D03*
X126250000Y-116250000D03*
%TO.N,GND*%
X129260000Y-101100000D03*
X123560000Y-113000000D03*
X117790000Y-100730000D03*
X117450000Y-115600000D03*
X124972378Y-106702378D03*
X127460000Y-119475000D03*
X140000000Y-111000000D03*
X136584022Y-103550000D03*
X117940000Y-107790000D03*
X130640000Y-121570000D03*
X120300000Y-116150000D03*
X127310000Y-113000000D03*
X125560000Y-111000000D03*
X131885000Y-113450000D03*
X133759022Y-103575000D03*
X131920000Y-98350000D03*
X125560000Y-113250000D03*
X129335000Y-119825000D03*
X126425000Y-104375000D03*
X127210000Y-107290000D03*
X131750000Y-121570000D03*
X120400000Y-121100000D03*
X133250000Y-100300000D03*
X131500000Y-96750000D03*
%TO.N,GPIO0*%
X126470000Y-106160000D03*
X124115728Y-108135500D03*
%TO.N,VCC*%
X130210500Y-100325000D03*
%TO.N,P1*%
X124793673Y-100212970D03*
X128360000Y-100048574D03*
X130460000Y-96460000D03*
%TO.N,GPIO19*%
X121882553Y-117850000D03*
X120023249Y-117851751D03*
%TO.N,GPIO22*%
X120249358Y-118871957D03*
X122571222Y-118575500D03*
%TD*%
D44*
%TO.N,ANT*%
X132135000Y-119450000D02*
X132085000Y-119500000D01*
D45*
X132135000Y-119725000D02*
X132085000Y-119775000D01*
X132135000Y-118250000D02*
X132135000Y-119725000D01*
D46*
X138310000Y-119935000D02*
X136625000Y-118250000D01*
X138310000Y-120400000D02*
X138310000Y-119935000D01*
D44*
X132135000Y-118000000D02*
X132135000Y-119450000D01*
D46*
X136625000Y-118250000D02*
X132135000Y-118250000D01*
D44*
%TO.N,Net-(C3-Pad2)*%
X129550000Y-114475000D02*
X129027500Y-114475000D01*
X130485000Y-118000000D02*
X131310000Y-117175000D01*
X130000000Y-115675000D02*
X129700000Y-115375000D01*
D45*
X129085000Y-118250000D02*
X130485000Y-118250000D01*
D44*
X129700000Y-114625000D02*
X129550000Y-114475000D01*
X129700000Y-115375000D02*
X129700000Y-114625000D01*
X131310000Y-117175000D02*
X131310000Y-115935000D01*
X131310000Y-115935000D02*
X131050000Y-115675000D01*
X131050000Y-115675000D02*
X130000000Y-115675000D01*
D47*
%TO.N,EN*%
X136624511Y-100301144D02*
X136624511Y-98434511D01*
D44*
X138500000Y-112090978D02*
X138534022Y-112125000D01*
D46*
X140000000Y-108850000D02*
X139900000Y-108850000D01*
X139900000Y-108850000D02*
X138500000Y-110250000D01*
D47*
X137409511Y-107849511D02*
X137409511Y-101200489D01*
D45*
X138534022Y-112125000D02*
X138534022Y-113675000D01*
D47*
X130710489Y-106475489D02*
X130710489Y-105575489D01*
X137409511Y-101200489D02*
X136659022Y-100450000D01*
X130710489Y-105575489D02*
X129935000Y-104800000D01*
X130710489Y-107276467D02*
X130710489Y-106475489D01*
X131209022Y-107775000D02*
X130710489Y-107276467D01*
D45*
X138534022Y-113675000D02*
X140159022Y-113675000D01*
D47*
X136659022Y-100450000D02*
X136659022Y-100335655D01*
X136624511Y-98434511D02*
X137774022Y-97285000D01*
X135839250Y-107775000D02*
X131209022Y-107775000D01*
X136661636Y-108597386D02*
X135839250Y-107775000D01*
X136661636Y-108597386D02*
X137409511Y-107849511D01*
X129935000Y-104800000D02*
X129410000Y-104800000D01*
X136659022Y-100335655D02*
X136624511Y-100301144D01*
D44*
X138500000Y-110250000D02*
X138500000Y-112090978D01*
%TO.N,+3V3*%
X125525000Y-99608562D02*
X125525000Y-100776000D01*
D47*
X122813000Y-116250000D02*
X122813000Y-115689500D01*
D48*
X125325000Y-102275000D02*
X125345000Y-102275000D01*
D44*
X130260000Y-113475000D02*
X130535000Y-113200000D01*
D49*
X130535000Y-113200000D02*
X131022500Y-112712500D01*
D47*
X127512500Y-115859360D02*
X127951570Y-116298430D01*
X129027500Y-114975000D02*
X129027500Y-115927500D01*
X127512500Y-115490000D02*
X127512500Y-115859360D01*
D44*
X129760000Y-113975000D02*
X130535000Y-113200000D01*
D45*
X134060000Y-113175000D02*
X134060000Y-111650000D01*
D48*
X125325000Y-101775000D02*
X125325000Y-101095000D01*
D47*
X126212000Y-116298430D02*
X127951570Y-116298430D01*
D45*
X136884022Y-113675000D02*
X134560000Y-113675000D01*
D44*
X129027500Y-113975000D02*
X129760000Y-113975000D01*
D48*
X125600000Y-101040000D02*
X125490000Y-100930000D01*
D50*
X135609022Y-100200000D02*
X135234022Y-99825000D01*
D49*
X131022500Y-112712500D02*
X132085000Y-111650000D01*
D47*
X122813000Y-115689500D02*
X123012500Y-115490000D01*
X131699822Y-108435480D02*
X131740288Y-108475946D01*
D48*
X125600000Y-102020000D02*
X125600000Y-101040000D01*
D44*
X124035000Y-99000000D02*
X124916438Y-99000000D01*
D47*
X127953140Y-116300000D02*
X129410000Y-116300000D01*
X129410000Y-116300000D02*
X130335000Y-116300000D01*
D44*
X124916438Y-99000000D02*
X125525000Y-99608562D01*
D50*
X135609022Y-102425000D02*
X135609022Y-100200000D01*
D48*
X125325000Y-101095000D02*
X125490000Y-100930000D01*
D49*
X134060000Y-105350000D02*
X134060000Y-106950000D01*
D50*
X135609022Y-103150000D02*
X134060000Y-104699022D01*
D48*
X125345000Y-102275000D02*
X125600000Y-102020000D01*
D47*
X125512500Y-108960000D02*
X125512500Y-108644616D01*
D48*
X125325000Y-102275000D02*
X125325000Y-101775000D01*
D47*
X130335000Y-116300000D02*
X130535000Y-116500000D01*
X127951570Y-116298430D02*
X127953140Y-116300000D01*
D50*
X130535000Y-114875000D02*
X130535000Y-113200000D01*
D44*
X129027500Y-113975000D02*
X129027500Y-113475000D01*
D50*
X124025000Y-97500000D02*
X124025000Y-98990000D01*
D44*
X129027500Y-113475000D02*
X130260000Y-113475000D01*
D47*
X125512500Y-108644616D02*
X125721636Y-108435480D01*
D50*
X135609022Y-102425000D02*
X135609022Y-103150000D01*
X124025000Y-98990000D02*
X124035000Y-99000000D01*
D45*
X134560000Y-113675000D02*
X134060000Y-113175000D01*
D47*
X125721636Y-108435480D02*
X131699822Y-108435480D01*
X129027500Y-115927500D02*
X129400000Y-116300000D01*
X126012500Y-115490000D02*
X126012500Y-116098930D01*
D50*
X134060000Y-104699022D02*
X134060000Y-105350000D01*
D47*
%TO.N,Net-(IC1-Pad9)*%
X129027500Y-110975000D02*
X131360490Y-110975000D01*
X131360490Y-110975000D02*
X131842745Y-110492745D01*
X136884022Y-110975000D02*
X136884022Y-112125000D01*
X135459511Y-109550489D02*
X135796522Y-109887500D01*
X132785001Y-109550489D02*
X135459511Y-109550489D01*
X131842745Y-110492745D02*
X132785001Y-109550489D01*
X135796522Y-109887500D02*
X136884022Y-110975000D01*
D45*
%TO.N,GND*%
X125560000Y-107290000D02*
X124972378Y-106702378D01*
D49*
X136560000Y-105550000D02*
X136360000Y-105350000D01*
D48*
X133759022Y-103575000D02*
X133434022Y-103250000D01*
X129185000Y-99275000D02*
X129185000Y-101025000D01*
D46*
X131885000Y-113450000D02*
X131885000Y-114675000D01*
D44*
X117940000Y-107790000D02*
X117940000Y-106445000D01*
D48*
X132585000Y-103250000D02*
X132585000Y-101475000D01*
D47*
X125325000Y-103775000D02*
X125825000Y-103775000D01*
D45*
X131160000Y-122090000D02*
X130640000Y-121570000D01*
D49*
X136510000Y-105500000D02*
X136360000Y-105350000D01*
D45*
X131160000Y-122090000D02*
X131230000Y-122090000D01*
D47*
X123375000Y-103775000D02*
X122875000Y-103275000D01*
X125825000Y-103775000D02*
X126425000Y-104375000D01*
D45*
X127460000Y-118300000D02*
X127510000Y-118250000D01*
D44*
X118500000Y-114787500D02*
X118500000Y-115225000D01*
D45*
X136584022Y-103550000D02*
X136584022Y-105125978D01*
X127460000Y-119475000D02*
X127460000Y-118300000D01*
X127210000Y-107290000D02*
X125560000Y-107290000D01*
D46*
X131885000Y-114675000D02*
X132085000Y-114875000D01*
D44*
X118125000Y-115600000D02*
X117450000Y-115600000D01*
D48*
X132585000Y-101475000D02*
X132635000Y-101425000D01*
D45*
X122560000Y-98575000D02*
X122485000Y-98650000D01*
X131230000Y-122090000D02*
X131750000Y-121570000D01*
X131160000Y-122750000D02*
X131160000Y-122090000D01*
X129335000Y-119825000D02*
X130485000Y-119825000D01*
D48*
X134059022Y-103275000D02*
X133759022Y-103575000D01*
D45*
X132085000Y-114875000D02*
X132085000Y-116500000D01*
X130485000Y-119825000D02*
X130535000Y-119775000D01*
D48*
X134059022Y-102425000D02*
X134059022Y-103275000D01*
D47*
X120300000Y-116150000D02*
X120300000Y-114937500D01*
D45*
X136584022Y-105125978D02*
X136360000Y-105350000D01*
D48*
X129185000Y-101025000D02*
X129260000Y-101100000D01*
X133434022Y-103250000D02*
X132585000Y-103250000D01*
D47*
X125325000Y-103775000D02*
X123375000Y-103775000D01*
D44*
X118500000Y-115225000D02*
X118125000Y-115600000D01*
D48*
%TO.N,Net-(Q1-Pad3)*%
X127360000Y-103100000D02*
X127535000Y-102925000D01*
X127535000Y-98600000D02*
X127110000Y-98175000D01*
X127110000Y-98175000D02*
X127110000Y-97775000D01*
X127535000Y-99275000D02*
X127535000Y-98600000D01*
X127535000Y-102925000D02*
X127535000Y-99275000D01*
D44*
%TO.N,P2*%
X130985000Y-101425000D02*
X130985000Y-98215000D01*
D46*
X129010000Y-97125000D02*
X127110000Y-97125000D01*
D44*
X129880000Y-97110000D02*
X129865000Y-97125000D01*
D46*
X129010000Y-96475000D02*
X129010000Y-97125000D01*
D44*
X130985000Y-98215000D02*
X129880000Y-97110000D01*
X129865000Y-97125000D02*
X129010000Y-97125000D01*
D48*
X129034500Y-97149500D02*
X129010000Y-97125000D01*
D44*
%TO.N,Net-(AE1-Pad1)*%
X129060000Y-121949022D02*
X129060000Y-122750000D01*
X130239022Y-120770000D02*
X129060000Y-121949022D01*
X132960000Y-120400000D02*
X132590000Y-120770000D01*
X132590000Y-120770000D02*
X130239022Y-120770000D01*
X135310000Y-120400000D02*
X132960000Y-120400000D01*
D47*
%TO.N,RTS*%
X122964011Y-107435989D02*
X121774520Y-108625480D01*
X128885000Y-105450000D02*
X128235000Y-104800000D01*
X120643093Y-106425480D02*
X122144520Y-106425480D01*
X121774520Y-108625480D02*
X121774520Y-109131907D01*
X124919487Y-107950000D02*
X124684744Y-107715256D01*
X120290000Y-106778574D02*
X120643093Y-106425480D01*
X121774520Y-109131907D02*
X121481907Y-109424520D01*
X122375000Y-106195000D02*
X122375000Y-105725000D01*
X128530489Y-107989511D02*
X124958999Y-107989511D01*
X120668093Y-109424520D02*
X120290000Y-109046427D01*
X130235000Y-105750000D02*
X130235000Y-106285000D01*
X128235000Y-104800000D02*
X127510000Y-104800000D01*
X129935000Y-105450000D02*
X130235000Y-105750000D01*
X129410000Y-105450000D02*
X129935000Y-105450000D01*
X122144520Y-106425480D02*
X122375000Y-106195000D01*
X124405476Y-107435989D02*
X122964011Y-107435989D01*
X124684744Y-107715256D02*
X124405476Y-107435989D01*
X124958999Y-107989511D02*
X124684744Y-107715256D01*
X121481907Y-109424520D02*
X120668093Y-109424520D01*
X120290000Y-109046427D02*
X120290000Y-106778574D01*
X130235000Y-106285000D02*
X128530489Y-107989511D01*
X129410000Y-105450000D02*
X128885000Y-105450000D01*
%TO.N,DTR*%
X129410000Y-106100000D02*
X128885000Y-106100000D01*
X125773770Y-105400489D02*
X124699511Y-105400489D01*
X127460489Y-105400489D02*
X125773770Y-105400489D01*
X124699511Y-105400489D02*
X124375000Y-105725000D01*
X127510000Y-105450000D02*
X127460489Y-105400489D01*
X128885000Y-106100000D02*
X128235000Y-105450000D01*
X128235000Y-105450000D02*
X127510000Y-105450000D01*
D44*
%TO.N,GPIO0*%
X126564000Y-106100000D02*
X126492000Y-106172000D01*
D47*
X117158533Y-113691467D02*
X116700000Y-114150000D01*
D44*
X127510000Y-106100000D02*
X126564000Y-106100000D01*
D47*
X116700000Y-116400000D02*
X116950000Y-116650000D01*
X123512500Y-108644616D02*
X124021616Y-108135500D01*
X124021616Y-108135500D02*
X124115728Y-108135500D01*
X117158533Y-105599511D02*
X117158533Y-113691467D01*
X116009022Y-104450000D02*
X117158533Y-105599511D01*
X116950000Y-116650000D02*
X118250000Y-116650000D01*
X116700000Y-114150000D02*
X116700000Y-116400000D01*
X123512500Y-108960000D02*
X123512500Y-108644616D01*
D45*
%TO.N,VCC*%
X129410000Y-103250000D02*
X129260000Y-103100000D01*
D44*
X135600000Y-94775000D02*
X135234022Y-95140978D01*
D45*
X130135480Y-100400020D02*
X130135480Y-102350480D01*
D44*
X135234022Y-95140978D02*
X135234022Y-97285000D01*
D45*
X131035000Y-103275000D02*
X131035000Y-103250000D01*
X130135480Y-102350480D02*
X131035000Y-103250000D01*
X130210500Y-100325000D02*
X130135480Y-100400020D01*
X131035000Y-103250000D02*
X129410000Y-103250000D01*
X131760000Y-105350000D02*
X131760000Y-104000000D01*
X130210500Y-98906941D02*
X129103070Y-97799511D01*
X131760000Y-104000000D02*
X131035000Y-103275000D01*
X130210500Y-100325000D02*
X130210500Y-98906941D01*
D47*
%TO.N,D+*%
X125235000Y-96177702D02*
X125725000Y-95687702D01*
X125325000Y-103275000D02*
X126200000Y-103275000D01*
X125235000Y-97310000D02*
X125235000Y-96177702D01*
X125725000Y-95687702D02*
X125725000Y-95195000D01*
X126675000Y-102800000D02*
X126675000Y-98750000D01*
X126200000Y-103275000D02*
X126675000Y-102800000D01*
X126675000Y-98750000D02*
X125235000Y-97310000D01*
%TO.N,D-*%
X125950000Y-102775000D02*
X125325000Y-102775000D01*
X126275000Y-98915006D02*
X126275000Y-102450000D01*
X125275000Y-95501302D02*
X124785000Y-95991302D01*
X124785000Y-97425006D02*
X126275000Y-98915006D01*
X125275000Y-95195000D02*
X125275000Y-95501302D01*
X126275000Y-102450000D02*
X125950000Y-102775000D01*
X124785000Y-95991302D02*
X124785000Y-97425006D01*
X125250000Y-95170000D02*
X125275000Y-95195000D01*
D44*
%TO.N,P1*%
X124375000Y-100825000D02*
X124375000Y-100631643D01*
D48*
X131900000Y-95562000D02*
X131358000Y-95562000D01*
D44*
X129800000Y-95800000D02*
X130460000Y-96460000D01*
X127635978Y-96475000D02*
X127110000Y-96475000D01*
X128310978Y-95800000D02*
X129800000Y-95800000D01*
X128310000Y-100098574D02*
X128360000Y-100048574D01*
X124375000Y-100825000D02*
X124375000Y-100549395D01*
X128310978Y-95800000D02*
X127635978Y-96475000D01*
X124375000Y-100631643D02*
X124793673Y-100212970D01*
D48*
X131358000Y-95562000D02*
X130460000Y-96460000D01*
D44*
X128310000Y-100900000D02*
X128310000Y-100098574D01*
D47*
%TO.N,IO34*%
X131295484Y-110475000D02*
X131572742Y-110197742D01*
X138923533Y-101335489D02*
X138923533Y-98675489D01*
X137449517Y-109874511D02*
X138208551Y-109115477D01*
X132619515Y-109150969D02*
X135660969Y-109150969D01*
X138923533Y-98675489D02*
X140314022Y-97285000D01*
X131572742Y-110197742D02*
X132619515Y-109150969D01*
X138208551Y-109115477D02*
X138208551Y-102050471D01*
X129027500Y-110475000D02*
X131295484Y-110475000D01*
X135660969Y-109150969D02*
X136384511Y-109874511D01*
X136384511Y-109874511D02*
X137449517Y-109874511D01*
X138208551Y-102050471D02*
X138923533Y-101335489D01*
%TO.N,IO35*%
X137334022Y-109425000D02*
X137809031Y-108949991D01*
X131230478Y-109975000D02*
X131627739Y-109577739D01*
X131627739Y-109577739D02*
X132454029Y-108751449D01*
X137809031Y-99860009D02*
X137774022Y-99825000D01*
X132454029Y-108751449D02*
X135826456Y-108751450D01*
X135826456Y-108751450D02*
X136500006Y-109425000D01*
X137809031Y-102175009D02*
X137809031Y-99860009D01*
X129027500Y-109975000D02*
X131230478Y-109975000D01*
X137809031Y-108949991D02*
X137809031Y-102175009D01*
X136500006Y-109425000D02*
X137334022Y-109425000D01*
%TO.N,GPIO19*%
X120021498Y-117850000D02*
X117550000Y-117850000D01*
X116300480Y-112361458D02*
X116009022Y-112070000D01*
X121882553Y-117850000D02*
X123275000Y-117850000D01*
X117550000Y-117850000D02*
X116300480Y-116600480D01*
X123512500Y-117612500D02*
X123512500Y-115490000D01*
X116300480Y-116600480D02*
X116300480Y-112361458D01*
X123275000Y-117850000D02*
X123512500Y-117612500D01*
X120023249Y-117851751D02*
X120021498Y-117850000D01*
%TO.N,GPIO22*%
X122595722Y-118600000D02*
X123375000Y-118600000D01*
X122571222Y-118575500D02*
X122595722Y-118600000D01*
X124012500Y-117962500D02*
X124012500Y-115490000D01*
X115900960Y-114415486D02*
X115900960Y-116765966D01*
X114859511Y-110679511D02*
X114859511Y-113374037D01*
X115900960Y-116765966D02*
X118006951Y-118871957D01*
X123375000Y-118600000D02*
X124012500Y-117962500D01*
X116009022Y-109530000D02*
X114859511Y-110679511D01*
X114859511Y-113374037D02*
X115900960Y-114415486D01*
X118006951Y-118871957D02*
X120249358Y-118871957D01*
%TO.N,GPIO21*%
X114459991Y-113539523D02*
X115501441Y-114580973D01*
X116009022Y-106990000D02*
X114459991Y-108539031D01*
X114459991Y-108539031D02*
X114459991Y-113539523D01*
X115501441Y-114580973D02*
X115501440Y-116931452D01*
X123952000Y-120142000D02*
X125512500Y-118581500D01*
X115501440Y-116931452D02*
X118711988Y-120142000D01*
X118711988Y-120142000D02*
X123952000Y-120142000D01*
X125512500Y-118581500D02*
X125512500Y-115490000D01*
D46*
%TO.N,Net-(D1-Pad2)*%
X127500000Y-93319984D02*
X127500000Y-92500000D01*
X128580480Y-91419520D02*
X131219520Y-91419520D01*
X123050000Y-93769984D02*
X125400464Y-91419520D01*
X123050000Y-94595000D02*
X123050000Y-93769984D01*
X131900000Y-92100000D02*
X131900000Y-93238000D01*
X127950000Y-93769984D02*
X127500000Y-93319984D01*
X125400464Y-91419520D02*
X129064502Y-91419520D01*
X127500000Y-92500000D02*
X128580480Y-91419520D01*
X131219520Y-91419520D02*
X131900000Y-92100000D01*
X127950000Y-94595000D02*
X127950000Y-93769984D01*
D47*
%TO.N,TXRX-*%
X121183053Y-118254853D02*
X121183053Y-111158053D01*
X123591800Y-119275000D02*
X122203200Y-119275000D01*
X119425000Y-109250000D02*
X120300000Y-110125000D01*
X121183053Y-111158053D02*
X120300000Y-110275000D01*
X119425000Y-108650000D02*
X119425000Y-109250000D01*
X124512500Y-118354300D02*
X123591800Y-119275000D01*
X124512500Y-115490000D02*
X124512500Y-118354300D01*
X122203200Y-119275000D02*
X121183053Y-118254853D01*
%TO.N,TXRX+*%
X120783533Y-118420339D02*
X120783533Y-117622792D01*
X119275480Y-110900480D02*
X118500000Y-110125000D01*
X122088194Y-119725000D02*
X120783533Y-118420339D01*
X119400000Y-107200000D02*
X118700480Y-107899520D01*
X118700480Y-107899520D02*
X118700480Y-109925480D01*
X119100000Y-107575000D02*
X119418573Y-107575000D01*
X119275480Y-115325480D02*
X119275480Y-110900480D01*
X125012500Y-115490000D02*
X125012500Y-118490700D01*
X125012500Y-118490700D02*
X123778200Y-119725000D01*
X119600489Y-116439748D02*
X119600489Y-115650489D01*
X123778200Y-119725000D02*
X122088194Y-119725000D01*
X120783533Y-117622792D02*
X119600489Y-116439748D01*
X119600489Y-115650489D02*
X119275480Y-115325480D01*
%TO.N,Net-(U2-Pad25)*%
X122875000Y-106265000D02*
X122875000Y-105725000D01*
X121075000Y-107200000D02*
X121940000Y-107200000D01*
X121940000Y-107200000D02*
X122875000Y-106265000D01*
D44*
%TO.N,Net-(D2-Pad1)*%
X134150000Y-94575000D02*
X135600000Y-93125000D01*
X134150000Y-94737500D02*
X134150000Y-94575000D01*
D47*
%TO.N,Net-(D4-Pad2)*%
X118500000Y-113362500D02*
X118500000Y-111925000D01*
%TO.N,Net-(D3-Pad2)*%
X120300000Y-113362500D02*
X120300000Y-111925000D01*
%TO.N,Net-(U2-Pad26)*%
X123375000Y-106455000D02*
X121180000Y-108650000D01*
X123375000Y-105725000D02*
X123375000Y-106455000D01*
X121180000Y-108650000D02*
X121075000Y-108650000D01*
D44*
%TO.N,Net-(SW3-PadC1)*%
X139810000Y-120400000D02*
X139810000Y-117037500D01*
X139810000Y-117037500D02*
X139847500Y-117000000D01*
%TD*%
%TA.AperFunction,Conductor*%
%TO.N,GND*%
G36*
X127904667Y-116907690D02*
G01*
X127904668Y-116907667D01*
X127904684Y-116907668D01*
X127905420Y-116907739D01*
X127909518Y-116908008D01*
X127913255Y-116908500D01*
X127913261Y-116908500D01*
X127913268Y-116908501D01*
X127953140Y-116913750D01*
X127984833Y-116909578D01*
X128001276Y-116908500D01*
X128669290Y-116908500D01*
X128737411Y-116928502D01*
X128762926Y-116950189D01*
X128782937Y-116972413D01*
X128788747Y-116978866D01*
X128869088Y-117037237D01*
X128870914Y-117038564D01*
X128914268Y-117094786D01*
X128920343Y-117165523D01*
X128887211Y-117228314D01*
X128825391Y-117263226D01*
X128796853Y-117266500D01*
X128786268Y-117266500D01*
X128783022Y-117266837D01*
X128783018Y-117266837D01*
X128753730Y-117269876D01*
X128683981Y-117277113D01*
X128675963Y-117279788D01*
X128528676Y-117328927D01*
X128528674Y-117328928D01*
X128521732Y-117331244D01*
X128515508Y-117335096D01*
X128515507Y-117335096D01*
X128420143Y-117394109D01*
X128376287Y-117421248D01*
X128371114Y-117426430D01*
X128365377Y-117430977D01*
X128363945Y-117429170D01*
X128311425Y-117457902D01*
X128240605Y-117452892D01*
X128204147Y-117429501D01*
X128203317Y-117430552D01*
X128186160Y-117417002D01*
X128053120Y-117334996D01*
X128039939Y-117328849D01*
X127891186Y-117279509D01*
X127877810Y-117276642D01*
X127786903Y-117267328D01*
X127781874Y-117267071D01*
X127766876Y-117271475D01*
X127765671Y-117272865D01*
X127764000Y-117280548D01*
X127764000Y-119214885D01*
X127768475Y-119230124D01*
X127769865Y-119231329D01*
X127777548Y-119233000D01*
X127780438Y-119233000D01*
X127786953Y-119232663D01*
X127879057Y-119223106D01*
X127892456Y-119220212D01*
X128041107Y-119170619D01*
X128054286Y-119164445D01*
X128187173Y-119082212D01*
X128204311Y-119068629D01*
X128205841Y-119070559D01*
X128257880Y-119042097D01*
X128328699Y-119047113D01*
X128365617Y-119070799D01*
X128366372Y-119069843D01*
X128372118Y-119074381D01*
X128377298Y-119079552D01*
X128383528Y-119083392D01*
X128383529Y-119083393D01*
X128515020Y-119164445D01*
X128522899Y-119169302D01*
X128685243Y-119223149D01*
X128692080Y-119223849D01*
X128692082Y-119223850D01*
X128733401Y-119228083D01*
X128786268Y-119233500D01*
X129333732Y-119233500D01*
X129336978Y-119233163D01*
X129336982Y-119233163D01*
X129429159Y-119223599D01*
X129429161Y-119223599D01*
X129436019Y-119222887D01*
X129440203Y-119221491D01*
X129510051Y-119226593D01*
X129566823Y-119269225D01*
X129591533Y-119335783D01*
X129589042Y-119370994D01*
X129586642Y-119382190D01*
X129577328Y-119473097D01*
X129577000Y-119479514D01*
X129577000Y-119502885D01*
X129581475Y-119518124D01*
X129582865Y-119519329D01*
X129590548Y-119521000D01*
X130663000Y-119521000D01*
X130731121Y-119541002D01*
X130777614Y-119594658D01*
X130789000Y-119647000D01*
X130789000Y-119903000D01*
X130768998Y-119971121D01*
X130715342Y-120017614D01*
X130663000Y-120029000D01*
X129595115Y-120029000D01*
X129579876Y-120033475D01*
X129578671Y-120034865D01*
X129577000Y-120042548D01*
X129577000Y-120070438D01*
X129577337Y-120076953D01*
X129586894Y-120169057D01*
X129589788Y-120182456D01*
X129639385Y-120331120D01*
X129647385Y-120348198D01*
X129658168Y-120418371D01*
X129629300Y-120483233D01*
X129622391Y-120490726D01*
X128667736Y-121445381D01*
X128659462Y-121452910D01*
X128652982Y-121457022D01*
X128647557Y-121462799D01*
X128606357Y-121506673D01*
X128603602Y-121509515D01*
X128583865Y-121529252D01*
X128581385Y-121532449D01*
X128573682Y-121541469D01*
X128543414Y-121573701D01*
X128539595Y-121580647D01*
X128539593Y-121580650D01*
X128533652Y-121591456D01*
X128522801Y-121607975D01*
X128510386Y-121623981D01*
X128507241Y-121631250D01*
X128507238Y-121631254D01*
X128492826Y-121664559D01*
X128487609Y-121675209D01*
X128466305Y-121713962D01*
X128464334Y-121721637D01*
X128464334Y-121721638D01*
X128461267Y-121733584D01*
X128454863Y-121752288D01*
X128446819Y-121770877D01*
X128445580Y-121778700D01*
X128445577Y-121778710D01*
X128439901Y-121814546D01*
X128437495Y-121826166D01*
X128426500Y-121868992D01*
X128426500Y-121889246D01*
X128424949Y-121908956D01*
X128421780Y-121928965D01*
X128422526Y-121936857D01*
X128425941Y-121972983D01*
X128426500Y-121984841D01*
X128426500Y-122076278D01*
X128406498Y-122144399D01*
X128352842Y-122190892D01*
X128300674Y-122202278D01*
X117134174Y-122217733D01*
X117066026Y-122197825D01*
X117019459Y-122144234D01*
X117008000Y-122091733D01*
X117008000Y-121877364D01*
X117028002Y-121809243D01*
X117081658Y-121762750D01*
X117147607Y-121752101D01*
X117198512Y-121757631D01*
X117205328Y-121758000D01*
X117977885Y-121758000D01*
X117993124Y-121753525D01*
X117994329Y-121752135D01*
X117996000Y-121744452D01*
X117996000Y-121739884D01*
X118504000Y-121739884D01*
X118508475Y-121755123D01*
X118509865Y-121756328D01*
X118517548Y-121757999D01*
X119294669Y-121757999D01*
X119301490Y-121757629D01*
X119352352Y-121752105D01*
X119367604Y-121748479D01*
X119488054Y-121703324D01*
X119503649Y-121694786D01*
X119605724Y-121618285D01*
X119618285Y-121605724D01*
X119694786Y-121503649D01*
X119703324Y-121488054D01*
X119748478Y-121367606D01*
X119752105Y-121352351D01*
X119757631Y-121301486D01*
X119758000Y-121294672D01*
X119758000Y-121122115D01*
X119753525Y-121106876D01*
X119752135Y-121105671D01*
X119744452Y-121104000D01*
X118522115Y-121104000D01*
X118506876Y-121108475D01*
X118505671Y-121109865D01*
X118504000Y-121117548D01*
X118504000Y-121739884D01*
X117996000Y-121739884D01*
X117996000Y-120722000D01*
X118016002Y-120653879D01*
X118069658Y-120607386D01*
X118122000Y-120596000D01*
X118261310Y-120596000D01*
X118329431Y-120616002D01*
X118338003Y-120622030D01*
X118405112Y-120673524D01*
X118479125Y-120704181D01*
X118545508Y-120731678D01*
X118545511Y-120731679D01*
X118553138Y-120734838D01*
X118711988Y-120755751D01*
X118743687Y-120751578D01*
X118760132Y-120750500D01*
X123903864Y-120750500D01*
X123920307Y-120751578D01*
X123952000Y-120755750D01*
X123960189Y-120754672D01*
X123991874Y-120750501D01*
X123991884Y-120750500D01*
X123991885Y-120750500D01*
X124091457Y-120737391D01*
X124102664Y-120735916D01*
X124102666Y-120735915D01*
X124110851Y-120734838D01*
X124258876Y-120673524D01*
X124354072Y-120600477D01*
X124354075Y-120600474D01*
X124385987Y-120575987D01*
X124391017Y-120569432D01*
X124405452Y-120550621D01*
X124416319Y-120538230D01*
X125908734Y-119045815D01*
X125921125Y-119034948D01*
X125939937Y-119020513D01*
X125946487Y-119015487D01*
X125970974Y-118983575D01*
X125970980Y-118983569D01*
X126029826Y-118906877D01*
X126029828Y-118906875D01*
X126038992Y-118894932D01*
X126044024Y-118888375D01*
X126105338Y-118740350D01*
X126121000Y-118621385D01*
X126121000Y-118621378D01*
X126126250Y-118581500D01*
X126122078Y-118549807D01*
X126121792Y-118545438D01*
X126552000Y-118545438D01*
X126552337Y-118551953D01*
X126561894Y-118644057D01*
X126564788Y-118657456D01*
X126614381Y-118806107D01*
X126620555Y-118819286D01*
X126702788Y-118952173D01*
X126711824Y-118963574D01*
X126822429Y-119073986D01*
X126833840Y-119082998D01*
X126966880Y-119165004D01*
X126980061Y-119171151D01*
X127128814Y-119220491D01*
X127142190Y-119223358D01*
X127233097Y-119232672D01*
X127238126Y-119232929D01*
X127253124Y-119228525D01*
X127254329Y-119227135D01*
X127256000Y-119219452D01*
X127256000Y-118522115D01*
X127251525Y-118506876D01*
X127250135Y-118505671D01*
X127242452Y-118504000D01*
X126570115Y-118504000D01*
X126554876Y-118508475D01*
X126553671Y-118509865D01*
X126552000Y-118517548D01*
X126552000Y-118545438D01*
X126121792Y-118545438D01*
X126121000Y-118533364D01*
X126121000Y-117977885D01*
X126552000Y-117977885D01*
X126556475Y-117993124D01*
X126557865Y-117994329D01*
X126565548Y-117996000D01*
X127237885Y-117996000D01*
X127253124Y-117991525D01*
X127254329Y-117990135D01*
X127256000Y-117982452D01*
X127256000Y-117285115D01*
X127251525Y-117269876D01*
X127250135Y-117268671D01*
X127242452Y-117267000D01*
X127239562Y-117267000D01*
X127233047Y-117267337D01*
X127140943Y-117276894D01*
X127127544Y-117279788D01*
X126978893Y-117329381D01*
X126965714Y-117335555D01*
X126832827Y-117417788D01*
X126821426Y-117426824D01*
X126711014Y-117537429D01*
X126702002Y-117548840D01*
X126619996Y-117681880D01*
X126613849Y-117695061D01*
X126564509Y-117843814D01*
X126561642Y-117857190D01*
X126552328Y-117948097D01*
X126552000Y-117954514D01*
X126552000Y-117977885D01*
X126121000Y-117977885D01*
X126121000Y-117284500D01*
X126141002Y-117216379D01*
X126194658Y-117169886D01*
X126247000Y-117158500D01*
X126345487Y-117158500D01*
X126351939Y-117157128D01*
X126351944Y-117157128D01*
X126438888Y-117138647D01*
X126532288Y-117118794D01*
X126538319Y-117116109D01*
X126700722Y-117043803D01*
X126700724Y-117043802D01*
X126706752Y-117041118D01*
X126722106Y-117029963D01*
X126858324Y-116930994D01*
X126925192Y-116907136D01*
X126932385Y-116906930D01*
X127893071Y-116906930D01*
X127904667Y-116907690D01*
G37*
%TD.AperFunction*%
%TA.AperFunction,Conductor*%
G36*
X133119532Y-121240539D02*
G01*
X133176368Y-121283086D01*
X133201179Y-121349606D01*
X133201500Y-121358595D01*
X133201500Y-121498134D01*
X133208255Y-121560316D01*
X133259385Y-121696705D01*
X133346739Y-121813261D01*
X133463295Y-121900615D01*
X133471703Y-121903767D01*
X133597766Y-121951026D01*
X133654530Y-121993668D01*
X133679230Y-122060229D01*
X133664023Y-122129578D01*
X133613737Y-122179696D01*
X133553711Y-122195008D01*
X132577179Y-122196359D01*
X132082289Y-122197044D01*
X132014141Y-122177136D01*
X131998707Y-122165485D01*
X131978704Y-122147819D01*
X131966659Y-122135626D01*
X131953239Y-122120051D01*
X131953237Y-122120050D01*
X131947381Y-122113253D01*
X131939853Y-122108374D01*
X131939850Y-122108371D01*
X131925861Y-122099304D01*
X131910987Y-122088014D01*
X131898502Y-122076988D01*
X131891772Y-122071044D01*
X131883646Y-122067229D01*
X131883645Y-122067228D01*
X131877979Y-122064568D01*
X131865034Y-122058490D01*
X131850065Y-122050176D01*
X131825273Y-122034107D01*
X131800709Y-122026761D01*
X131783264Y-122020099D01*
X131760052Y-122009201D01*
X131730870Y-122004657D01*
X131714151Y-122000874D01*
X131694464Y-121994986D01*
X131694461Y-121994985D01*
X131685859Y-121992413D01*
X131676884Y-121992358D01*
X131676883Y-121992358D01*
X131670190Y-121992317D01*
X131651444Y-121992203D01*
X131650672Y-121992170D01*
X131649577Y-121992000D01*
X131618702Y-121992000D01*
X131617932Y-121991998D01*
X131544284Y-121991548D01*
X131544283Y-121991548D01*
X131540348Y-121991524D01*
X131539004Y-121991908D01*
X131537659Y-121992000D01*
X130718702Y-121992000D01*
X130717932Y-121991998D01*
X130717078Y-121991993D01*
X130640348Y-121991524D01*
X130631719Y-121993990D01*
X130631714Y-121993991D01*
X130611952Y-121999639D01*
X130595191Y-122003217D01*
X130574848Y-122006130D01*
X130574838Y-122006133D01*
X130565955Y-122007405D01*
X130542605Y-122018021D01*
X130525093Y-122024464D01*
X130517057Y-122026761D01*
X130500435Y-122031512D01*
X130475452Y-122047274D01*
X130460386Y-122055404D01*
X130433490Y-122067633D01*
X130414061Y-122084374D01*
X130399053Y-122095479D01*
X130377369Y-122109160D01*
X130362578Y-122125908D01*
X130357819Y-122131296D01*
X130345627Y-122143340D01*
X130323253Y-122162619D01*
X130322326Y-122161543D01*
X130270484Y-122194615D01*
X130235566Y-122199600D01*
X130009378Y-122199913D01*
X129941230Y-122180005D01*
X129894663Y-122126414D01*
X129884462Y-122056154D01*
X129913865Y-121991532D01*
X129920109Y-121984817D01*
X130118218Y-121786709D01*
X130464523Y-121440404D01*
X130526835Y-121406379D01*
X130553618Y-121403500D01*
X132511233Y-121403500D01*
X132522416Y-121404027D01*
X132529909Y-121405702D01*
X132537835Y-121405453D01*
X132537836Y-121405453D01*
X132597986Y-121403562D01*
X132601945Y-121403500D01*
X132629856Y-121403500D01*
X132633791Y-121403003D01*
X132633856Y-121402995D01*
X132645693Y-121402062D01*
X132677951Y-121401048D01*
X132681970Y-121400922D01*
X132689889Y-121400673D01*
X132709343Y-121395021D01*
X132728700Y-121391013D01*
X132740930Y-121389468D01*
X132740931Y-121389468D01*
X132748797Y-121388474D01*
X132756168Y-121385555D01*
X132756170Y-121385555D01*
X132789912Y-121372196D01*
X132801142Y-121368351D01*
X132835983Y-121358229D01*
X132835984Y-121358229D01*
X132843593Y-121356018D01*
X132850412Y-121351985D01*
X132850417Y-121351983D01*
X132861028Y-121345707D01*
X132878776Y-121337012D01*
X132897617Y-121329552D01*
X132933387Y-121303564D01*
X132943307Y-121297048D01*
X132966915Y-121283086D01*
X132981362Y-121274542D01*
X132986969Y-121268935D01*
X132993230Y-121264079D01*
X132994153Y-121265269D01*
X133048717Y-121235474D01*
X133119532Y-121240539D01*
G37*
%TD.AperFunction*%
%TA.AperFunction,Conductor*%
G36*
X132111866Y-113158500D02*
G01*
X133181459Y-113158500D01*
X133249580Y-113178502D01*
X133296073Y-113232158D01*
X133307044Y-113274284D01*
X133311140Y-113324637D01*
X133313396Y-113331601D01*
X133314587Y-113337560D01*
X133315971Y-113343415D01*
X133316818Y-113350681D01*
X133341735Y-113419327D01*
X133343152Y-113423455D01*
X133365649Y-113492899D01*
X133369445Y-113499154D01*
X133371951Y-113504628D01*
X133374670Y-113510058D01*
X133377167Y-113516937D01*
X133381180Y-113523057D01*
X133381180Y-113523058D01*
X133417186Y-113577976D01*
X133419523Y-113581680D01*
X133457405Y-113644107D01*
X133461121Y-113648315D01*
X133461122Y-113648316D01*
X133464803Y-113652484D01*
X133464776Y-113652508D01*
X133467429Y-113655500D01*
X133470132Y-113658733D01*
X133474144Y-113664852D01*
X133479456Y-113669884D01*
X133530383Y-113718128D01*
X133532825Y-113720506D01*
X133976230Y-114163911D01*
X133988616Y-114178323D01*
X133997149Y-114189918D01*
X133997154Y-114189923D01*
X134001492Y-114195818D01*
X134007070Y-114200557D01*
X134007073Y-114200560D01*
X134041768Y-114230035D01*
X134049284Y-114236965D01*
X134054980Y-114242661D01*
X134057841Y-114244924D01*
X134057846Y-114244929D01*
X134077266Y-114260293D01*
X134080667Y-114263082D01*
X134136285Y-114310333D01*
X134142798Y-114313659D01*
X134147837Y-114317020D01*
X134152979Y-114320196D01*
X134158716Y-114324734D01*
X134224875Y-114355655D01*
X134228769Y-114357558D01*
X134293808Y-114390769D01*
X134300917Y-114392508D01*
X134306551Y-114394604D01*
X134312321Y-114396523D01*
X134318950Y-114399622D01*
X134326113Y-114401112D01*
X134326116Y-114401113D01*
X134376830Y-114411661D01*
X134390435Y-114414491D01*
X134394701Y-114415457D01*
X134465610Y-114432808D01*
X134471212Y-114433156D01*
X134471215Y-114433156D01*
X134476764Y-114433500D01*
X134476762Y-114433535D01*
X134480734Y-114433775D01*
X134484955Y-114434152D01*
X134492115Y-114435641D01*
X134569542Y-114433546D01*
X134572950Y-114433500D01*
X136113312Y-114433500D01*
X136181433Y-114453502D01*
X136202407Y-114470405D01*
X136243641Y-114511639D01*
X136390323Y-114600472D01*
X136397570Y-114602743D01*
X136397572Y-114602744D01*
X136463858Y-114623517D01*
X136553960Y-114651753D01*
X136627387Y-114658500D01*
X136630285Y-114658500D01*
X136884687Y-114658499D01*
X137140656Y-114658499D01*
X137143514Y-114658236D01*
X137143523Y-114658236D01*
X137179026Y-114654974D01*
X137214084Y-114651753D01*
X137222534Y-114649105D01*
X137370472Y-114602744D01*
X137370474Y-114602743D01*
X137377721Y-114600472D01*
X137524403Y-114511639D01*
X137619927Y-114416115D01*
X137682239Y-114382089D01*
X137753054Y-114387154D01*
X137798117Y-114416115D01*
X137893641Y-114511639D01*
X137900143Y-114515576D01*
X137900142Y-114515576D01*
X137927577Y-114532191D01*
X137975483Y-114584588D01*
X137987457Y-114654567D01*
X137959696Y-114719911D01*
X137954627Y-114725716D01*
X137946297Y-114734684D01*
X137949783Y-114743072D01*
X138564689Y-115357979D01*
X138578632Y-115365592D01*
X138580466Y-115365461D01*
X138587080Y-115361210D01*
X139201437Y-114746852D01*
X139224024Y-114705487D01*
X139226369Y-114694708D01*
X139276571Y-114644506D01*
X139345945Y-114629415D01*
X139403073Y-114647835D01*
X139431667Y-114665461D01*
X139431670Y-114665462D01*
X139437899Y-114669302D01*
X139600243Y-114723149D01*
X139607080Y-114723849D01*
X139607082Y-114723850D01*
X139648401Y-114728083D01*
X139701268Y-114733500D01*
X140298732Y-114733500D01*
X140301978Y-114733163D01*
X140301982Y-114733163D01*
X140401019Y-114722887D01*
X140401282Y-114725425D01*
X140460443Y-114729735D01*
X140505349Y-114758637D01*
X141387616Y-115640905D01*
X141421641Y-115703217D01*
X141416576Y-115774033D01*
X141387615Y-115819095D01*
X141206595Y-116000115D01*
X141144283Y-116034141D01*
X141073468Y-116029076D01*
X141028405Y-116000116D01*
X140131246Y-115102957D01*
X140118868Y-115096199D01*
X140112903Y-115100664D01*
X140023489Y-115270611D01*
X140019085Y-115281244D01*
X139967080Y-115448727D01*
X139927777Y-115507852D01*
X139862747Y-115536343D01*
X139792638Y-115525153D01*
X139739708Y-115477836D01*
X139725478Y-115445565D01*
X139687288Y-115310154D01*
X139683166Y-115299415D01*
X139592191Y-115114937D01*
X139586397Y-115105483D01*
X139575244Y-115097113D01*
X139562826Y-115103885D01*
X138577500Y-116089210D01*
X137953406Y-116713305D01*
X137947212Y-116724649D01*
X137957094Y-116737138D01*
X138006278Y-116770002D01*
X138016388Y-116775492D01*
X138205370Y-116856685D01*
X138216313Y-116860240D01*
X138282760Y-116875276D01*
X138344787Y-116909819D01*
X138378291Y-116972413D01*
X138372637Y-117043184D01*
X138329618Y-117099663D01*
X138281347Y-117120197D01*
X138281538Y-117120911D01*
X138276482Y-117122266D01*
X138276284Y-117122350D01*
X138275960Y-117122406D01*
X138264842Y-117125385D01*
X138071872Y-117196576D01*
X138061494Y-117201526D01*
X137955895Y-117264351D01*
X137946297Y-117274684D01*
X137949782Y-117283070D01*
X138847616Y-118180905D01*
X138881641Y-118243217D01*
X138876576Y-118314033D01*
X138847615Y-118359095D01*
X138666595Y-118540115D01*
X138604283Y-118574141D01*
X138533468Y-118569076D01*
X138488405Y-118540116D01*
X137591246Y-117642957D01*
X137578868Y-117636199D01*
X137572903Y-117640664D01*
X137483489Y-117810611D01*
X137479084Y-117821247D01*
X137457661Y-117890241D01*
X137418358Y-117949367D01*
X137353329Y-117977858D01*
X137283220Y-117966669D01*
X137248233Y-117941973D01*
X137148655Y-117842395D01*
X137140665Y-117833615D01*
X137140663Y-117833613D01*
X137136416Y-117826920D01*
X137084742Y-117778395D01*
X137081901Y-117775641D01*
X137061333Y-117755073D01*
X137057826Y-117752353D01*
X137048804Y-117744647D01*
X137020913Y-117718456D01*
X137015133Y-117713028D01*
X137008181Y-117709206D01*
X136996342Y-117702697D01*
X136979818Y-117691843D01*
X136969132Y-117683555D01*
X136962868Y-117678696D01*
X136955596Y-117675549D01*
X136955594Y-117675548D01*
X136920465Y-117660346D01*
X136909805Y-117655124D01*
X136876284Y-117636695D01*
X136876282Y-117636694D01*
X136869337Y-117632876D01*
X136848559Y-117627541D01*
X136829869Y-117621142D01*
X136810176Y-117612620D01*
X136764552Y-117605394D01*
X136752929Y-117602987D01*
X136724928Y-117595798D01*
X136708188Y-117591500D01*
X136686741Y-117591500D01*
X136667031Y-117589949D01*
X136653677Y-117587834D01*
X136645848Y-117586594D01*
X136599859Y-117590941D01*
X136588004Y-117591500D01*
X133001398Y-117591500D01*
X132933277Y-117571498D01*
X132902246Y-117543249D01*
X132900575Y-117541118D01*
X132896639Y-117534619D01*
X132818441Y-117456421D01*
X132784415Y-117394109D01*
X132789480Y-117323294D01*
X132818363Y-117278308D01*
X132883986Y-117212571D01*
X132892998Y-117201160D01*
X132975004Y-117068120D01*
X132981151Y-117054939D01*
X133030491Y-116906186D01*
X133033358Y-116892810D01*
X133042672Y-116801903D01*
X133043000Y-116795487D01*
X133043000Y-116772115D01*
X133038525Y-116756876D01*
X133037135Y-116755671D01*
X133029452Y-116754000D01*
X132069500Y-116754000D01*
X132001379Y-116733998D01*
X131954886Y-116680342D01*
X131943500Y-116628000D01*
X131943500Y-116227885D01*
X132339000Y-116227885D01*
X132343475Y-116243124D01*
X132344865Y-116244329D01*
X132352548Y-116246000D01*
X133024885Y-116246000D01*
X133040124Y-116241525D01*
X133041329Y-116240135D01*
X133043000Y-116232452D01*
X133043000Y-116204562D01*
X133042663Y-116198047D01*
X133033106Y-116105943D01*
X133030212Y-116092544D01*
X132980619Y-115943893D01*
X132974445Y-115930714D01*
X132892212Y-115797827D01*
X132883177Y-115786427D01*
X132873330Y-115776598D01*
X132839249Y-115714316D01*
X132839929Y-115704692D01*
X137391221Y-115704692D01*
X137404673Y-115909930D01*
X137406474Y-115921300D01*
X137457102Y-116120650D01*
X137460943Y-116131497D01*
X137547053Y-116318284D01*
X137552809Y-116328253D01*
X137570189Y-116352846D01*
X137580780Y-116361237D01*
X137594079Y-116354210D01*
X138205479Y-115742811D01*
X138213092Y-115728868D01*
X138212961Y-115727034D01*
X138208710Y-115720420D01*
X137591244Y-115102955D01*
X137578869Y-115096198D01*
X137572903Y-115100664D01*
X137483489Y-115270611D01*
X137479081Y-115281254D01*
X137418088Y-115477681D01*
X137415698Y-115488925D01*
X137391522Y-115693191D01*
X137391221Y-115704692D01*
X132839929Y-115704692D01*
X132844250Y-115643496D01*
X132873172Y-115598405D01*
X132883982Y-115587576D01*
X132892998Y-115576160D01*
X132975004Y-115443120D01*
X132981151Y-115429939D01*
X133030491Y-115281186D01*
X133033358Y-115267810D01*
X133042672Y-115176903D01*
X133043000Y-115170487D01*
X133043000Y-115147115D01*
X133038525Y-115131876D01*
X133037135Y-115130671D01*
X133029452Y-115129000D01*
X132357115Y-115129000D01*
X132341876Y-115133475D01*
X132340671Y-115134865D01*
X132339000Y-115142548D01*
X132339000Y-116227885D01*
X131943500Y-116227885D01*
X131943500Y-116013768D01*
X131944027Y-116002585D01*
X131945702Y-115995092D01*
X131943562Y-115927001D01*
X131943500Y-115923044D01*
X131943500Y-115895144D01*
X131942996Y-115891153D01*
X131942063Y-115879311D01*
X131941140Y-115849920D01*
X131940674Y-115835111D01*
X131938461Y-115827493D01*
X131935021Y-115815652D01*
X131931012Y-115796293D01*
X131930328Y-115790879D01*
X131928474Y-115776203D01*
X131925558Y-115768837D01*
X131925556Y-115768831D01*
X131912200Y-115735098D01*
X131908355Y-115723868D01*
X131898230Y-115689017D01*
X131898230Y-115689016D01*
X131896019Y-115681407D01*
X131885705Y-115663966D01*
X131877008Y-115646213D01*
X131872472Y-115634758D01*
X131869552Y-115627383D01*
X131860919Y-115615500D01*
X131855064Y-115607442D01*
X131831205Y-115540574D01*
X131831000Y-115533381D01*
X131831000Y-114602885D01*
X132339000Y-114602885D01*
X132343475Y-114618124D01*
X132344865Y-114619329D01*
X132352548Y-114621000D01*
X133024885Y-114621000D01*
X133040124Y-114616525D01*
X133041329Y-114615135D01*
X133043000Y-114607452D01*
X133043000Y-114579562D01*
X133042663Y-114573047D01*
X133033106Y-114480943D01*
X133030212Y-114467544D01*
X132980619Y-114318893D01*
X132974445Y-114305714D01*
X132892212Y-114172827D01*
X132883176Y-114161426D01*
X132772571Y-114051014D01*
X132761160Y-114042002D01*
X132628120Y-113959996D01*
X132614939Y-113953849D01*
X132466186Y-113904509D01*
X132452810Y-113901642D01*
X132361903Y-113892328D01*
X132356874Y-113892071D01*
X132341876Y-113896475D01*
X132340671Y-113897865D01*
X132339000Y-113905548D01*
X132339000Y-114602885D01*
X131831000Y-114602885D01*
X131831000Y-113910115D01*
X131826525Y-113894876D01*
X131825135Y-113893671D01*
X131817452Y-113892000D01*
X131814562Y-113892000D01*
X131808047Y-113892337D01*
X131715943Y-113901894D01*
X131702541Y-113904789D01*
X131584375Y-113944211D01*
X131513426Y-113946795D01*
X131452342Y-113910611D01*
X131420518Y-113847147D01*
X131418500Y-113824687D01*
X131418500Y-113794926D01*
X131438502Y-113726805D01*
X131455404Y-113705831D01*
X131695465Y-113465769D01*
X131695470Y-113465764D01*
X131695473Y-113465762D01*
X131970740Y-113190494D01*
X132033053Y-113156469D01*
X132073443Y-113154326D01*
X132111866Y-113158500D01*
G37*
%TD.AperFunction*%
%TA.AperFunction,Conductor*%
G36*
X120505369Y-115737457D02*
G01*
X120557152Y-115786028D01*
X120574553Y-115849920D01*
X120574553Y-116249073D01*
X120554551Y-116317194D01*
X120500895Y-116363687D01*
X120430621Y-116373791D01*
X120366041Y-116344297D01*
X120359458Y-116338168D01*
X120245894Y-116224604D01*
X120211868Y-116162292D01*
X120208989Y-116135509D01*
X120208989Y-115859000D01*
X120228991Y-115790879D01*
X120282647Y-115744386D01*
X120334989Y-115733000D01*
X120351266Y-115733000D01*
X120357779Y-115732663D01*
X120435548Y-115724593D01*
X120505369Y-115737457D01*
G37*
%TD.AperFunction*%
%TA.AperFunction,Conductor*%
G36*
X117517012Y-115179986D02*
G01*
X117554024Y-115235334D01*
X117578830Y-115309687D01*
X117585004Y-115322866D01*
X117666470Y-115454514D01*
X117675506Y-115465915D01*
X117736023Y-115526327D01*
X117770102Y-115588610D01*
X117765099Y-115659430D01*
X117722602Y-115716303D01*
X117656103Y-115741171D01*
X117647005Y-115741500D01*
X117434500Y-115741500D01*
X117366379Y-115721498D01*
X117319886Y-115667842D01*
X117308500Y-115615500D01*
X117308500Y-115275210D01*
X117328502Y-115207089D01*
X117382158Y-115160596D01*
X117452432Y-115150492D01*
X117517012Y-115179986D01*
G37*
%TD.AperFunction*%
%TA.AperFunction,Conductor*%
G36*
X120246121Y-114553502D02*
G01*
X120292614Y-114607158D01*
X120304000Y-114659500D01*
X120304000Y-114915500D01*
X120283998Y-114983621D01*
X120230342Y-115030114D01*
X120178000Y-115041500D01*
X120009980Y-115041500D01*
X119941859Y-115021498D01*
X119895366Y-114967842D01*
X119883980Y-114915500D01*
X119883980Y-114659500D01*
X119903982Y-114591379D01*
X119957638Y-114544886D01*
X120009980Y-114533500D01*
X120178000Y-114533500D01*
X120246121Y-114553502D01*
G37*
%TD.AperFunction*%
%TA.AperFunction,Conductor*%
G36*
X118609101Y-114553502D02*
G01*
X118655594Y-114607158D01*
X118666980Y-114659500D01*
X118666980Y-114915500D01*
X118646978Y-114983621D01*
X118593322Y-115030114D01*
X118540980Y-115041500D01*
X118372000Y-115041500D01*
X118303879Y-115021498D01*
X118257386Y-114967842D01*
X118246000Y-114915500D01*
X118246000Y-114659500D01*
X118266002Y-114591379D01*
X118319658Y-114544886D01*
X118372000Y-114533500D01*
X118540980Y-114533500D01*
X118609101Y-114553502D01*
G37*
%TD.AperFunction*%
%TA.AperFunction,Conductor*%
G36*
X141670050Y-109270429D02*
G01*
X141726056Y-109314062D01*
X141749753Y-109387569D01*
X141751619Y-114473981D01*
X141751637Y-114524335D01*
X141731660Y-114592463D01*
X141678021Y-114638975D01*
X141607751Y-114649105D01*
X141578947Y-114641411D01*
X141460013Y-114593962D01*
X141448976Y-114590693D01*
X141247248Y-114550566D01*
X141235804Y-114549363D01*
X141030146Y-114546671D01*
X141012911Y-114548027D01*
X141012786Y-114546444D01*
X140949704Y-114539136D01*
X140894792Y-114494134D01*
X140872927Y-114426588D01*
X140891619Y-114357013D01*
X140915460Y-114318335D01*
X140915462Y-114318330D01*
X140919302Y-114312101D01*
X140973149Y-114149757D01*
X140977385Y-114108419D01*
X140983172Y-114051930D01*
X140983500Y-114048732D01*
X140983500Y-113501268D01*
X140972887Y-113398981D01*
X140945649Y-113317339D01*
X140921073Y-113243676D01*
X140921072Y-113243674D01*
X140918756Y-113236732D01*
X140907965Y-113219293D01*
X140832606Y-113097515D01*
X140828752Y-113091287D01*
X140823570Y-113086114D01*
X140819023Y-113080377D01*
X140820830Y-113078945D01*
X140792098Y-113026425D01*
X140797108Y-112955605D01*
X140820499Y-112919147D01*
X140819448Y-112918317D01*
X140832998Y-112901160D01*
X140915004Y-112768120D01*
X140921151Y-112754939D01*
X140970491Y-112606186D01*
X140973358Y-112592810D01*
X140982672Y-112501903D01*
X140982929Y-112496874D01*
X140978525Y-112481876D01*
X140977135Y-112480671D01*
X140969452Y-112479000D01*
X139872000Y-112479000D01*
X139803879Y-112458998D01*
X139757386Y-112405342D01*
X139746000Y-112353000D01*
X139746000Y-111952885D01*
X140254000Y-111952885D01*
X140258475Y-111968124D01*
X140259865Y-111969329D01*
X140267548Y-111971000D01*
X140964885Y-111971000D01*
X140980124Y-111966525D01*
X140981329Y-111965135D01*
X140983000Y-111957452D01*
X140983000Y-111954562D01*
X140982663Y-111948047D01*
X140973106Y-111855943D01*
X140970212Y-111842544D01*
X140920619Y-111693893D01*
X140914445Y-111680714D01*
X140832212Y-111547827D01*
X140823176Y-111536426D01*
X140712571Y-111426014D01*
X140701160Y-111417002D01*
X140568120Y-111334996D01*
X140554939Y-111328849D01*
X140406186Y-111279509D01*
X140392810Y-111276642D01*
X140301903Y-111267328D01*
X140295486Y-111267000D01*
X140272115Y-111267000D01*
X140256876Y-111271475D01*
X140255671Y-111272865D01*
X140254000Y-111280548D01*
X140254000Y-111952885D01*
X139746000Y-111952885D01*
X139746000Y-111285115D01*
X139741525Y-111269876D01*
X139740135Y-111268671D01*
X139732452Y-111267000D01*
X139704562Y-111267000D01*
X139698047Y-111267337D01*
X139605943Y-111276894D01*
X139592544Y-111279788D01*
X139443893Y-111329381D01*
X139430717Y-111335554D01*
X139386379Y-111362990D01*
X139317927Y-111381827D01*
X139250157Y-111360665D01*
X139230982Y-111344940D01*
X139174403Y-111288361D01*
X139175806Y-111286958D01*
X139140488Y-111237508D01*
X139133500Y-111196131D01*
X139133500Y-110952524D01*
X139153502Y-110884403D01*
X139165858Y-110868221D01*
X139239040Y-110786944D01*
X139334527Y-110621556D01*
X139384632Y-110467349D01*
X139391502Y-110446207D01*
X139391502Y-110446205D01*
X139393542Y-110439928D01*
X139406755Y-110314213D01*
X139433768Y-110248558D01*
X139442970Y-110238290D01*
X139885855Y-109795405D01*
X139948167Y-109761379D01*
X139974950Y-109758500D01*
X141048134Y-109758500D01*
X141110316Y-109751745D01*
X141246705Y-109700615D01*
X141363261Y-109613261D01*
X141450615Y-109496705D01*
X141501745Y-109360316D01*
X141502128Y-109356791D01*
X141536389Y-109296821D01*
X141599345Y-109264002D01*
X141670050Y-109270429D01*
G37*
%TD.AperFunction*%
%TA.AperFunction,Conductor*%
G36*
X140470057Y-87009500D02*
G01*
X140484858Y-87011805D01*
X140484861Y-87011805D01*
X140493730Y-87013186D01*
X140507769Y-87011350D01*
X140533989Y-87010675D01*
X140684406Y-87022513D01*
X140703934Y-87025606D01*
X140749836Y-87036626D01*
X140874162Y-87066474D01*
X140892957Y-87072581D01*
X141054699Y-87139577D01*
X141072304Y-87148547D01*
X141154207Y-87198737D01*
X141221578Y-87240022D01*
X141237573Y-87251644D01*
X141370686Y-87365333D01*
X141384667Y-87379314D01*
X141498356Y-87512427D01*
X141509977Y-87528420D01*
X141601453Y-87677696D01*
X141610423Y-87695301D01*
X141677417Y-87857038D01*
X141683526Y-87875838D01*
X141724394Y-88046065D01*
X141727487Y-88065593D01*
X141738774Y-88209012D01*
X141738133Y-88225881D01*
X141738305Y-88225883D01*
X141738196Y-88234856D01*
X141736814Y-88243730D01*
X141738638Y-88257678D01*
X141740952Y-88275372D01*
X141742016Y-88291665D01*
X141745040Y-96535115D01*
X141745052Y-96569083D01*
X141725075Y-96637211D01*
X141671436Y-96683723D01*
X141601166Y-96693853D01*
X141536574Y-96664384D01*
X141513260Y-96637569D01*
X141396844Y-96457617D01*
X141396842Y-96457614D01*
X141394036Y-96453277D01*
X141243692Y-96288051D01*
X141239641Y-96284852D01*
X141239637Y-96284848D01*
X141072436Y-96152800D01*
X141072432Y-96152798D01*
X141068381Y-96149598D01*
X141058634Y-96144217D01*
X140962569Y-96091187D01*
X140872811Y-96041638D01*
X140867942Y-96039914D01*
X140867938Y-96039912D01*
X140667109Y-95968795D01*
X140667105Y-95968794D01*
X140662234Y-95967069D01*
X140657141Y-95966162D01*
X140657138Y-95966161D01*
X140447395Y-95928800D01*
X140447389Y-95928799D01*
X140442306Y-95927894D01*
X140368474Y-95926992D01*
X140224103Y-95925228D01*
X140224101Y-95925228D01*
X140218933Y-95925165D01*
X139998113Y-95958955D01*
X139785778Y-96028357D01*
X139587629Y-96131507D01*
X139583496Y-96134610D01*
X139583493Y-96134612D01*
X139448947Y-96235632D01*
X139408987Y-96265635D01*
X139405415Y-96269373D01*
X139297751Y-96382037D01*
X139254651Y-96427138D01*
X139147223Y-96584621D01*
X139092315Y-96629621D01*
X139021790Y-96637792D01*
X138958043Y-96606538D01*
X138937346Y-96582054D01*
X138856844Y-96457617D01*
X138856842Y-96457614D01*
X138854036Y-96453277D01*
X138703692Y-96288051D01*
X138699641Y-96284852D01*
X138699637Y-96284848D01*
X138532436Y-96152800D01*
X138532432Y-96152798D01*
X138528381Y-96149598D01*
X138518634Y-96144217D01*
X138422569Y-96091187D01*
X138332811Y-96041638D01*
X138327942Y-96039914D01*
X138327938Y-96039912D01*
X138127109Y-95968795D01*
X138127105Y-95968794D01*
X138122234Y-95967069D01*
X138117141Y-95966162D01*
X138117138Y-95966161D01*
X137907395Y-95928800D01*
X137907389Y-95928799D01*
X137902306Y-95927894D01*
X137828474Y-95926992D01*
X137684103Y-95925228D01*
X137684101Y-95925228D01*
X137678933Y-95925165D01*
X137458113Y-95958955D01*
X137245778Y-96028357D01*
X137047629Y-96131507D01*
X137043496Y-96134610D01*
X137043493Y-96134612D01*
X136908947Y-96235632D01*
X136868987Y-96265635D01*
X136791993Y-96346205D01*
X136788305Y-96350064D01*
X136726781Y-96385494D01*
X136655868Y-96382037D01*
X136598082Y-96340791D01*
X136579229Y-96307243D01*
X136537789Y-96196703D01*
X136534637Y-96188295D01*
X136447283Y-96071739D01*
X136330727Y-95984385D01*
X136194338Y-95933255D01*
X136132156Y-95926500D01*
X136025201Y-95926500D01*
X135957080Y-95906498D01*
X135910587Y-95852842D01*
X135900483Y-95782568D01*
X135929977Y-95717988D01*
X135989703Y-95679604D01*
X135999020Y-95677308D01*
X136005062Y-95676753D01*
X136080312Y-95653171D01*
X136161450Y-95627744D01*
X136161452Y-95627743D01*
X136168699Y-95625472D01*
X136315381Y-95536639D01*
X136436639Y-95415381D01*
X136525472Y-95268699D01*
X136536237Y-95234350D01*
X136558372Y-95163714D01*
X136576753Y-95105062D01*
X136583500Y-95031635D01*
X136583499Y-94518366D01*
X136576753Y-94444938D01*
X136567264Y-94414658D01*
X136527744Y-94288550D01*
X136527743Y-94288548D01*
X136525472Y-94281301D01*
X136436639Y-94134619D01*
X136341115Y-94039095D01*
X136307089Y-93976783D01*
X136312154Y-93905968D01*
X136341115Y-93860905D01*
X136436639Y-93765381D01*
X136525472Y-93618699D01*
X136576753Y-93455062D01*
X136583500Y-93381635D01*
X136583499Y-92868366D01*
X136576753Y-92794938D01*
X136559753Y-92740692D01*
X136527744Y-92638550D01*
X136527743Y-92638548D01*
X136525472Y-92631301D01*
X136436639Y-92484619D01*
X136315381Y-92363361D01*
X136168699Y-92274528D01*
X136161452Y-92272257D01*
X136161450Y-92272256D01*
X136065767Y-92242271D01*
X136005062Y-92223247D01*
X135931635Y-92216500D01*
X135928737Y-92216500D01*
X135599140Y-92216501D01*
X135268366Y-92216501D01*
X135265508Y-92216764D01*
X135265499Y-92216764D01*
X135231630Y-92219876D01*
X135194938Y-92223247D01*
X135188560Y-92225246D01*
X135188559Y-92225246D01*
X135038550Y-92272256D01*
X135038548Y-92272257D01*
X135031301Y-92274528D01*
X135024805Y-92278462D01*
X135024803Y-92278463D01*
X134932872Y-92334138D01*
X134864242Y-92352317D01*
X134801485Y-92333622D01*
X134721709Y-92284447D01*
X134708532Y-92278303D01*
X134561157Y-92229421D01*
X134547790Y-92226555D01*
X134457730Y-92217328D01*
X134451315Y-92217000D01*
X134422115Y-92217000D01*
X134406876Y-92221475D01*
X134405671Y-92222865D01*
X134404000Y-92230548D01*
X134404000Y-93290500D01*
X134383998Y-93358621D01*
X134330342Y-93405114D01*
X134278000Y-93416500D01*
X133185115Y-93416500D01*
X133169876Y-93420975D01*
X133168671Y-93422365D01*
X133167158Y-93429321D01*
X133167337Y-93432782D01*
X133176804Y-93524021D01*
X133179697Y-93537417D01*
X133228830Y-93684687D01*
X133235004Y-93697866D01*
X133316470Y-93829514D01*
X133325506Y-93840915D01*
X133345158Y-93860533D01*
X133379237Y-93922816D01*
X133374234Y-93993636D01*
X133345314Y-94038723D01*
X133319136Y-94064947D01*
X133230151Y-94209308D01*
X133227846Y-94216256D01*
X133227846Y-94216257D01*
X133182694Y-94352386D01*
X133176762Y-94370269D01*
X133166500Y-94470428D01*
X133166500Y-95004572D01*
X133177022Y-95105982D01*
X133230692Y-95266849D01*
X133319929Y-95411055D01*
X133325107Y-95416224D01*
X133348569Y-95439645D01*
X133439947Y-95530864D01*
X133584308Y-95619849D01*
X133591256Y-95622154D01*
X133591257Y-95622154D01*
X133738738Y-95671072D01*
X133738740Y-95671072D01*
X133745269Y-95673238D01*
X133845428Y-95683500D01*
X134253756Y-95683500D01*
X134321877Y-95703502D01*
X134368370Y-95757158D01*
X134378474Y-95827432D01*
X134348980Y-95892012D01*
X134282902Y-95932083D01*
X134281562Y-95932402D01*
X134273706Y-95933255D01*
X134137317Y-95984385D01*
X134020761Y-96071739D01*
X133933407Y-96188295D01*
X133882277Y-96324684D01*
X133875522Y-96386866D01*
X133875522Y-98183134D01*
X133882277Y-98245316D01*
X133933407Y-98381705D01*
X134020761Y-98498261D01*
X134137317Y-98585615D01*
X134145726Y-98588767D01*
X134145727Y-98588768D01*
X134254473Y-98629535D01*
X134311238Y-98672176D01*
X134335938Y-98738738D01*
X134320731Y-98808087D01*
X134301338Y-98834568D01*
X134174651Y-98967138D01*
X134048765Y-99151680D01*
X133954710Y-99354305D01*
X133895011Y-99569570D01*
X133871273Y-99791695D01*
X133871570Y-99796848D01*
X133871570Y-99796851D01*
X133880599Y-99953444D01*
X133884132Y-100014715D01*
X133885269Y-100019761D01*
X133885270Y-100019767D01*
X133897770Y-100075231D01*
X133933244Y-100232639D01*
X133935625Y-100238502D01*
X134010545Y-100423009D01*
X134017288Y-100439616D01*
X134039104Y-100475216D01*
X134111975Y-100594131D01*
X134134009Y-100630088D01*
X134280272Y-100798938D01*
X134452148Y-100941632D01*
X134645022Y-101054338D01*
X134649848Y-101056181D01*
X134653966Y-101058154D01*
X134706757Y-101105627D01*
X134725522Y-101171784D01*
X134725522Y-101374602D01*
X134705520Y-101442723D01*
X134651864Y-101489216D01*
X134581590Y-101499320D01*
X134559854Y-101494195D01*
X134440208Y-101454509D01*
X134426832Y-101451642D01*
X134335925Y-101442328D01*
X134330896Y-101442071D01*
X134315898Y-101446475D01*
X134314693Y-101447865D01*
X134313022Y-101455548D01*
X134313022Y-102553000D01*
X134293020Y-102621121D01*
X134239364Y-102667614D01*
X134187022Y-102679000D01*
X133931022Y-102679000D01*
X133862901Y-102658998D01*
X133816408Y-102605342D01*
X133805022Y-102553000D01*
X133805022Y-101460115D01*
X133800547Y-101444876D01*
X133799157Y-101443671D01*
X133791474Y-101442000D01*
X133788584Y-101442000D01*
X133782069Y-101442337D01*
X133683106Y-101452606D01*
X133682808Y-101449739D01*
X133624813Y-101445515D01*
X133568033Y-101402894D01*
X133543309Y-101336341D01*
X133543000Y-101327518D01*
X133542999Y-101096295D01*
X133542736Y-101090546D01*
X133536868Y-101026685D01*
X133534257Y-101013649D01*
X133487285Y-100863757D01*
X133481079Y-100850012D01*
X133400176Y-100716426D01*
X133390869Y-100704557D01*
X133280443Y-100594131D01*
X133268574Y-100584824D01*
X133134988Y-100503921D01*
X133121243Y-100497715D01*
X132971356Y-100450744D01*
X132958306Y-100448131D01*
X132903414Y-100443087D01*
X132891876Y-100446475D01*
X132890671Y-100447865D01*
X132889000Y-100455548D01*
X132889000Y-102351095D01*
X132868998Y-102419216D01*
X132858225Y-102433607D01*
X132840671Y-102453865D01*
X132839000Y-102461548D01*
X132839000Y-103378000D01*
X132818998Y-103446121D01*
X132765342Y-103492614D01*
X132713000Y-103504000D01*
X132457000Y-103504000D01*
X132388879Y-103483998D01*
X132342386Y-103430342D01*
X132331000Y-103378000D01*
X132331000Y-102323905D01*
X132351002Y-102255784D01*
X132361775Y-102241393D01*
X132379329Y-102221135D01*
X132381000Y-102213452D01*
X132381000Y-100460116D01*
X132376525Y-100444877D01*
X132375135Y-100443672D01*
X132370706Y-100442709D01*
X132311685Y-100448132D01*
X132298649Y-100450743D01*
X132148757Y-100497715D01*
X132135012Y-100503921D01*
X132001426Y-100584824D01*
X131989557Y-100594131D01*
X131899449Y-100684239D01*
X131837137Y-100718265D01*
X131766322Y-100713200D01*
X131721259Y-100684239D01*
X131655405Y-100618385D01*
X131621379Y-100556073D01*
X131618500Y-100529290D01*
X131618500Y-98293767D01*
X131619027Y-98282584D01*
X131620702Y-98275091D01*
X131618562Y-98207014D01*
X131618500Y-98203055D01*
X131618500Y-98175144D01*
X131617995Y-98171144D01*
X131617062Y-98159301D01*
X131615922Y-98123030D01*
X131615673Y-98115111D01*
X131610021Y-98095657D01*
X131606013Y-98076300D01*
X131604468Y-98064070D01*
X131604468Y-98064069D01*
X131603474Y-98056203D01*
X131600555Y-98048830D01*
X131587196Y-98015088D01*
X131583351Y-98003858D01*
X131573229Y-97969017D01*
X131573229Y-97969016D01*
X131571018Y-97961407D01*
X131566985Y-97954588D01*
X131566983Y-97954583D01*
X131560707Y-97943972D01*
X131552012Y-97926224D01*
X131544552Y-97907383D01*
X131518564Y-97871613D01*
X131512048Y-97861693D01*
X131493580Y-97830465D01*
X131493578Y-97830462D01*
X131489542Y-97823638D01*
X131475221Y-97809317D01*
X131462380Y-97794283D01*
X131455131Y-97784306D01*
X131450472Y-97777893D01*
X131444368Y-97772843D01*
X131444363Y-97772838D01*
X131416402Y-97749707D01*
X131407622Y-97741717D01*
X131021226Y-97355321D01*
X130987200Y-97293009D01*
X130992265Y-97222194D01*
X131036260Y-97164290D01*
X131071253Y-97138866D01*
X131111818Y-97093814D01*
X131194621Y-97001852D01*
X131194622Y-97001851D01*
X131199040Y-96996944D01*
X131282801Y-96851866D01*
X131291223Y-96837279D01*
X131291224Y-96837278D01*
X131294527Y-96831556D01*
X131342561Y-96683723D01*
X131347145Y-96669616D01*
X131387219Y-96611010D01*
X131452615Y-96583373D01*
X131511207Y-96590570D01*
X131532282Y-96598471D01*
X131532288Y-96598473D01*
X131539684Y-96601245D01*
X131601866Y-96608000D01*
X132198134Y-96608000D01*
X132260316Y-96601245D01*
X132396705Y-96550115D01*
X132513261Y-96462761D01*
X132600615Y-96346205D01*
X132651745Y-96209816D01*
X132658500Y-96147634D01*
X132658500Y-94976366D01*
X132651745Y-94914184D01*
X132600615Y-94777795D01*
X132513261Y-94661239D01*
X132396705Y-94573885D01*
X132260316Y-94522755D01*
X132254526Y-94522126D01*
X132193679Y-94487365D01*
X132160859Y-94424410D01*
X132167285Y-94353705D01*
X132210917Y-94297698D01*
X132254263Y-94277903D01*
X132260316Y-94277245D01*
X132396705Y-94226115D01*
X132513261Y-94138761D01*
X132600615Y-94022205D01*
X132651745Y-93885816D01*
X132658500Y-93823634D01*
X132658500Y-92891700D01*
X133167386Y-92891700D01*
X133171475Y-92905624D01*
X133172865Y-92906829D01*
X133180548Y-92908500D01*
X133877885Y-92908500D01*
X133893124Y-92904025D01*
X133894329Y-92902635D01*
X133896000Y-92894952D01*
X133896000Y-92235115D01*
X133891525Y-92219876D01*
X133890135Y-92218671D01*
X133882452Y-92217000D01*
X133848734Y-92217000D01*
X133842218Y-92217337D01*
X133750979Y-92226804D01*
X133737583Y-92229697D01*
X133590313Y-92278830D01*
X133577134Y-92285004D01*
X133445486Y-92366470D01*
X133434085Y-92375506D01*
X133324702Y-92485080D01*
X133315690Y-92496491D01*
X133234447Y-92628291D01*
X133228303Y-92641468D01*
X133179421Y-92788843D01*
X133176555Y-92802210D01*
X133167386Y-92891700D01*
X132658500Y-92891700D01*
X132658500Y-92652366D01*
X132651745Y-92590184D01*
X132600615Y-92453795D01*
X132583673Y-92431189D01*
X132558826Y-92364685D01*
X132558500Y-92355626D01*
X132558500Y-92182056D01*
X132559059Y-92170200D01*
X132559059Y-92170197D01*
X132560788Y-92162463D01*
X132558562Y-92091631D01*
X132558500Y-92087673D01*
X132558500Y-92058568D01*
X132557944Y-92054168D01*
X132557012Y-92042330D01*
X132555811Y-92004094D01*
X132555562Y-91996169D01*
X132549580Y-91975579D01*
X132545570Y-91956216D01*
X132543875Y-91942796D01*
X132543875Y-91942795D01*
X132542882Y-91934936D01*
X132539966Y-91927571D01*
X132539965Y-91927567D01*
X132525874Y-91891979D01*
X132522035Y-91880769D01*
X132509145Y-91836400D01*
X132498225Y-91817935D01*
X132489534Y-91800195D01*
X132481635Y-91780244D01*
X132454482Y-91742871D01*
X132447967Y-91732952D01*
X132428493Y-91700023D01*
X132428490Y-91700019D01*
X132424453Y-91693193D01*
X132409289Y-91678029D01*
X132396448Y-91662995D01*
X132388501Y-91652057D01*
X132383841Y-91645643D01*
X132348247Y-91616197D01*
X132339468Y-91608208D01*
X131743175Y-91011915D01*
X131735185Y-91003135D01*
X131735183Y-91003133D01*
X131730936Y-90996440D01*
X131713485Y-90980052D01*
X131679263Y-90947916D01*
X131676421Y-90945161D01*
X131655853Y-90924593D01*
X131652346Y-90921873D01*
X131643324Y-90914167D01*
X131639133Y-90910231D01*
X131609653Y-90882548D01*
X131602701Y-90878726D01*
X131590862Y-90872217D01*
X131574338Y-90861363D01*
X131563652Y-90853075D01*
X131557388Y-90848216D01*
X131550116Y-90845069D01*
X131550114Y-90845068D01*
X131514985Y-90829866D01*
X131504325Y-90824644D01*
X131470804Y-90806215D01*
X131470802Y-90806214D01*
X131463857Y-90802396D01*
X131443079Y-90797061D01*
X131424389Y-90790662D01*
X131404696Y-90782140D01*
X131359072Y-90774914D01*
X131347449Y-90772507D01*
X131313181Y-90763709D01*
X131302708Y-90761020D01*
X131281261Y-90761020D01*
X131261551Y-90759469D01*
X131248197Y-90757354D01*
X131240368Y-90756114D01*
X131194379Y-90760461D01*
X131182524Y-90761020D01*
X130807286Y-90761020D01*
X130739165Y-90741018D01*
X130692672Y-90687362D01*
X130682568Y-90617088D01*
X130696871Y-90574319D01*
X130771094Y-90439308D01*
X130775924Y-90428038D01*
X130833452Y-90246685D01*
X130836002Y-90234691D01*
X130852607Y-90086650D01*
X130853000Y-90079626D01*
X130853000Y-89772115D01*
X130848525Y-89756876D01*
X130847135Y-89755671D01*
X130839452Y-89754000D01*
X128805115Y-89754000D01*
X128789876Y-89758475D01*
X128788671Y-89759865D01*
X128787000Y-89767548D01*
X128787000Y-90072890D01*
X128787300Y-90079035D01*
X128801170Y-90220481D01*
X128803553Y-90232519D01*
X128858542Y-90414651D01*
X128863213Y-90425984D01*
X128942907Y-90575867D01*
X128957226Y-90645404D01*
X128931678Y-90711645D01*
X128874373Y-90753558D01*
X128831655Y-90761020D01*
X128662536Y-90761020D01*
X128650680Y-90760461D01*
X128650677Y-90760461D01*
X128642943Y-90758732D01*
X128587926Y-90760461D01*
X128572111Y-90760958D01*
X128568153Y-90761020D01*
X125482520Y-90761020D01*
X125470664Y-90760461D01*
X125470661Y-90760461D01*
X125462927Y-90758732D01*
X125407910Y-90760461D01*
X125392095Y-90760958D01*
X125388137Y-90761020D01*
X125359032Y-90761020D01*
X125354632Y-90761576D01*
X125342800Y-90762508D01*
X125296633Y-90763958D01*
X125276043Y-90769940D01*
X125256682Y-90773950D01*
X125249694Y-90774832D01*
X125243260Y-90775645D01*
X125243259Y-90775645D01*
X125235400Y-90776638D01*
X125228035Y-90779554D01*
X125228031Y-90779555D01*
X125192443Y-90793646D01*
X125181233Y-90797485D01*
X125136864Y-90810375D01*
X125118399Y-90821295D01*
X125100659Y-90829986D01*
X125080708Y-90837885D01*
X125043338Y-90865036D01*
X125033416Y-90871553D01*
X125000487Y-90891027D01*
X125000483Y-90891030D01*
X124993657Y-90895067D01*
X124978493Y-90910231D01*
X124963460Y-90923071D01*
X124946107Y-90935679D01*
X124935984Y-90947916D01*
X124916662Y-90971272D01*
X124908672Y-90980052D01*
X123373171Y-92515553D01*
X123310859Y-92549579D01*
X123240044Y-92544514D01*
X123206411Y-92523480D01*
X123205529Y-92524633D01*
X123062769Y-92415484D01*
X123062765Y-92415481D01*
X123057348Y-92411340D01*
X122888296Y-92332510D01*
X122706260Y-92291820D01*
X122700537Y-92291500D01*
X122563404Y-92291500D01*
X122560008Y-92291869D01*
X122560007Y-92291869D01*
X122524944Y-92295678D01*
X122424563Y-92306583D01*
X122247777Y-92366078D01*
X122087891Y-92462147D01*
X122086316Y-92459525D01*
X122032482Y-92480001D01*
X121963012Y-92465359D01*
X121925039Y-92434019D01*
X121920434Y-92428372D01*
X121911784Y-92419662D01*
X121765191Y-92298390D01*
X121755020Y-92291530D01*
X121587658Y-92201038D01*
X121576353Y-92196286D01*
X121451308Y-92157578D01*
X121437205Y-92157372D01*
X121434000Y-92164127D01*
X121434000Y-93407885D01*
X121438475Y-93423124D01*
X121439865Y-93424329D01*
X121447548Y-93426000D01*
X121708982Y-93426000D01*
X121777103Y-93446002D01*
X121820438Y-93493234D01*
X121894075Y-93632898D01*
X121898484Y-93638115D01*
X121973320Y-93726672D01*
X122002012Y-93791613D01*
X121991039Y-93861757D01*
X121943886Y-93914833D01*
X121877082Y-93934000D01*
X121452115Y-93934000D01*
X121436876Y-93938475D01*
X121435671Y-93939865D01*
X121434000Y-93947548D01*
X121434000Y-94322885D01*
X121438475Y-94338124D01*
X121439865Y-94339329D01*
X121447548Y-94341000D01*
X122115500Y-94341000D01*
X122183621Y-94361002D01*
X122230114Y-94414658D01*
X122241500Y-94467000D01*
X122241500Y-94826863D01*
X122221498Y-94894984D01*
X122167842Y-94941477D01*
X122097568Y-94951581D01*
X122032988Y-94922087D01*
X121994604Y-94862361D01*
X121991525Y-94851876D01*
X121990135Y-94850671D01*
X121982452Y-94849000D01*
X121452115Y-94849000D01*
X121436876Y-94853475D01*
X121435671Y-94854865D01*
X121434000Y-94862548D01*
X121434000Y-95188986D01*
X121436897Y-95198852D01*
X121442001Y-95234350D01*
X121442001Y-95364669D01*
X121442371Y-95371490D01*
X121447895Y-95422352D01*
X121451521Y-95437604D01*
X121496676Y-95558054D01*
X121505214Y-95573649D01*
X121581715Y-95675724D01*
X121594276Y-95688285D01*
X121696351Y-95764786D01*
X121711946Y-95773324D01*
X121832394Y-95818478D01*
X121847649Y-95822105D01*
X121898514Y-95827631D01*
X121905328Y-95828000D01*
X121977885Y-95828000D01*
X121993124Y-95823525D01*
X121994329Y-95822135D01*
X121996000Y-95814452D01*
X121996000Y-95434792D01*
X122016002Y-95366671D01*
X122069658Y-95320178D01*
X122139932Y-95310074D01*
X122204512Y-95339568D01*
X122242896Y-95399294D01*
X122247263Y-95421185D01*
X122247401Y-95422460D01*
X122247402Y-95422464D01*
X122248255Y-95430316D01*
X122299385Y-95566705D01*
X122386739Y-95683261D01*
X122433075Y-95717988D01*
X122455889Y-95735086D01*
X122498403Y-95791946D01*
X122501219Y-95800413D01*
X122508475Y-95825123D01*
X122509865Y-95826328D01*
X122517548Y-95827999D01*
X122594670Y-95827999D01*
X122601488Y-95827630D01*
X122634067Y-95824091D01*
X122661280Y-95824091D01*
X122701866Y-95828500D01*
X123398134Y-95828500D01*
X123406134Y-95827631D01*
X123460316Y-95821745D01*
X123460580Y-95824174D01*
X123489420Y-95824174D01*
X123489684Y-95821745D01*
X123543867Y-95827631D01*
X123551866Y-95828500D01*
X123948134Y-95828500D01*
X123951529Y-95828131D01*
X123951533Y-95828131D01*
X123979222Y-95825123D01*
X123986394Y-95824344D01*
X124013606Y-95824344D01*
X124051866Y-95828500D01*
X124055285Y-95828500D01*
X124055839Y-95828530D01*
X124122779Y-95852185D01*
X124166304Y-95908276D01*
X124173950Y-95970790D01*
X124172328Y-95983112D01*
X124171250Y-95991302D01*
X124172328Y-95999490D01*
X124175422Y-96022992D01*
X124176500Y-96039438D01*
X124176500Y-96390500D01*
X124156498Y-96458621D01*
X124102842Y-96505114D01*
X124050500Y-96516500D01*
X123751268Y-96516500D01*
X123748022Y-96516837D01*
X123748018Y-96516837D01*
X123718730Y-96519876D01*
X123648981Y-96527113D01*
X123640963Y-96529788D01*
X123493676Y-96578927D01*
X123493674Y-96578928D01*
X123486732Y-96581244D01*
X123480508Y-96585096D01*
X123480507Y-96585096D01*
X123396290Y-96637211D01*
X123341287Y-96671248D01*
X123336114Y-96676430D01*
X123330377Y-96680977D01*
X123328945Y-96679170D01*
X123276425Y-96707902D01*
X123205605Y-96702892D01*
X123169147Y-96679501D01*
X123168317Y-96680552D01*
X123151160Y-96667002D01*
X123018120Y-96584996D01*
X123004939Y-96578849D01*
X122856186Y-96529509D01*
X122842810Y-96526642D01*
X122751903Y-96517328D01*
X122746874Y-96517071D01*
X122731876Y-96521475D01*
X122730671Y-96522865D01*
X122729000Y-96530548D01*
X122729000Y-97958885D01*
X122733896Y-97975559D01*
X122739000Y-98011057D01*
X122739000Y-99128000D01*
X122718998Y-99196121D01*
X122665342Y-99242614D01*
X122613000Y-99254000D01*
X121545115Y-99254000D01*
X121529876Y-99258475D01*
X121528671Y-99259865D01*
X121527000Y-99267548D01*
X121527000Y-99295438D01*
X121527337Y-99301953D01*
X121536894Y-99394057D01*
X121539788Y-99407456D01*
X121589381Y-99556107D01*
X121595555Y-99569286D01*
X121677788Y-99702173D01*
X121686827Y-99713578D01*
X121690103Y-99716848D01*
X121724184Y-99779130D01*
X121719182Y-99849950D01*
X121676685Y-99906823D01*
X121610187Y-99931693D01*
X121584641Y-99930944D01*
X121479013Y-99917038D01*
X121479010Y-99917038D01*
X121474925Y-99916500D01*
X121375013Y-99916500D01*
X121275076Y-99916501D01*
X121270991Y-99917039D01*
X121270987Y-99917039D01*
X121171626Y-99930119D01*
X121171624Y-99930120D01*
X121163439Y-99931197D01*
X121024536Y-99988733D01*
X120905258Y-100080258D01*
X120813733Y-100199537D01*
X120756197Y-100338439D01*
X120741500Y-100450075D01*
X120741501Y-100795031D01*
X120741501Y-101015500D01*
X120721499Y-101083621D01*
X120667843Y-101130114D01*
X120615501Y-101141500D01*
X120071984Y-101141501D01*
X120050076Y-101141501D01*
X120045992Y-101142039D01*
X120045986Y-101142039D01*
X119946626Y-101155119D01*
X119946624Y-101155120D01*
X119938439Y-101156197D01*
X119799536Y-101213733D01*
X119680258Y-101305258D01*
X119588733Y-101424537D01*
X119531197Y-101563439D01*
X119530120Y-101571623D01*
X119530119Y-101571625D01*
X119517038Y-101670988D01*
X119516500Y-101675075D01*
X119516501Y-101874924D01*
X119531197Y-101986561D01*
X119533875Y-101993026D01*
X119533875Y-102056974D01*
X119531197Y-102063439D01*
X119522206Y-102131735D01*
X119517562Y-102167012D01*
X119516500Y-102175075D01*
X119516501Y-102374924D01*
X119517039Y-102379009D01*
X119517039Y-102379013D01*
X119521988Y-102416607D01*
X119531197Y-102486561D01*
X119533875Y-102493026D01*
X119533875Y-102556974D01*
X119531197Y-102563439D01*
X119516500Y-102675075D01*
X119516501Y-102874924D01*
X119517039Y-102879009D01*
X119517039Y-102879013D01*
X119525771Y-102945344D01*
X119531197Y-102986561D01*
X119533875Y-102993026D01*
X119533875Y-103056974D01*
X119531197Y-103063439D01*
X119516500Y-103175075D01*
X119516501Y-103374924D01*
X119517039Y-103379009D01*
X119517039Y-103379013D01*
X119519935Y-103401012D01*
X119531197Y-103486561D01*
X119533875Y-103493026D01*
X119533875Y-103556974D01*
X119531197Y-103563439D01*
X119516500Y-103675075D01*
X119516501Y-103874924D01*
X119517039Y-103879009D01*
X119517039Y-103879013D01*
X119519368Y-103896705D01*
X119531197Y-103986561D01*
X119533875Y-103993026D01*
X119533875Y-104056974D01*
X119531197Y-104063439D01*
X119516500Y-104175075D01*
X119516501Y-104374924D01*
X119531197Y-104486561D01*
X119533875Y-104493026D01*
X119533875Y-104556974D01*
X119531197Y-104563439D01*
X119516500Y-104675075D01*
X119516501Y-104874924D01*
X119517039Y-104879009D01*
X119517039Y-104879013D01*
X119526114Y-104947951D01*
X119531197Y-104986561D01*
X119588733Y-105125464D01*
X119680258Y-105244742D01*
X119799537Y-105336267D01*
X119938439Y-105393803D01*
X119946623Y-105394880D01*
X119946625Y-105394881D01*
X120045988Y-105407962D01*
X120050075Y-105408500D01*
X120071978Y-105408500D01*
X120615501Y-105408499D01*
X120683621Y-105428501D01*
X120730114Y-105482157D01*
X120741500Y-105534498D01*
X120741501Y-105688273D01*
X120721499Y-105756394D01*
X120667844Y-105802887D01*
X120631948Y-105813196D01*
X120492430Y-105831564D01*
X120484242Y-105832642D01*
X120336217Y-105893956D01*
X120241021Y-105967003D01*
X120241018Y-105967006D01*
X120209106Y-105991493D01*
X120202910Y-105999568D01*
X120189643Y-106016857D01*
X120178776Y-106029247D01*
X119983923Y-106224100D01*
X119921611Y-106258126D01*
X119857149Y-106255239D01*
X119814243Y-106241793D01*
X119755062Y-106223247D01*
X119681635Y-106216500D01*
X119678737Y-106216500D01*
X119424335Y-106216501D01*
X119168366Y-106216501D01*
X119165508Y-106216764D01*
X119165499Y-106216764D01*
X119129996Y-106220026D01*
X119094938Y-106223247D01*
X119088560Y-106225246D01*
X119088559Y-106225246D01*
X118938550Y-106272256D01*
X118938548Y-106272257D01*
X118931301Y-106274528D01*
X118784619Y-106363361D01*
X118663361Y-106484619D01*
X118574528Y-106631301D01*
X118572257Y-106638548D01*
X118572256Y-106638550D01*
X118555243Y-106692838D01*
X118523247Y-106794938D01*
X118516500Y-106868365D01*
X118516501Y-107039755D01*
X118516501Y-107170760D01*
X118496499Y-107238880D01*
X118479596Y-107259855D01*
X118304246Y-107435205D01*
X118291855Y-107446072D01*
X118266493Y-107465533D01*
X118242006Y-107497445D01*
X118242003Y-107497448D01*
X118241997Y-107497456D01*
X118181948Y-107575713D01*
X118168956Y-107592644D01*
X118111430Y-107731524D01*
X118107642Y-107740670D01*
X118091980Y-107859635D01*
X118091980Y-107859640D01*
X118086730Y-107899520D01*
X118087808Y-107907708D01*
X118090902Y-107931210D01*
X118091980Y-107947656D01*
X118091980Y-109131618D01*
X118071978Y-109199739D01*
X118018322Y-109246232D01*
X118003661Y-109251852D01*
X117931302Y-109274528D01*
X117930329Y-109271424D01*
X117874577Y-109279201D01*
X117810121Y-109249437D01*
X117771989Y-109189550D01*
X117767033Y-109154560D01*
X117767033Y-105647647D01*
X117768111Y-105631201D01*
X117771205Y-105607699D01*
X117772283Y-105599511D01*
X117767033Y-105559631D01*
X117767033Y-105559626D01*
X117753924Y-105460054D01*
X117751371Y-105440660D01*
X117690057Y-105292635D01*
X117617010Y-105197439D01*
X117617007Y-105197436D01*
X117592520Y-105165524D01*
X117585965Y-105160494D01*
X117567154Y-105146059D01*
X117554763Y-105135192D01*
X117404427Y-104984856D01*
X117370401Y-104922544D01*
X117367522Y-104895761D01*
X117367522Y-103551866D01*
X117360767Y-103489684D01*
X117309637Y-103353295D01*
X117222283Y-103236739D01*
X117105727Y-103149385D01*
X116969338Y-103098255D01*
X116907156Y-103091500D01*
X115110888Y-103091500D01*
X115048706Y-103098255D01*
X114912317Y-103149385D01*
X114795761Y-103236739D01*
X114708407Y-103353295D01*
X114657277Y-103489684D01*
X114650522Y-103551866D01*
X114650522Y-105348134D01*
X114657277Y-105410316D01*
X114708407Y-105546705D01*
X114795761Y-105663261D01*
X114912317Y-105750615D01*
X114920726Y-105753767D01*
X114920727Y-105753768D01*
X115029473Y-105794535D01*
X115086238Y-105837176D01*
X115110938Y-105903738D01*
X115095731Y-105973087D01*
X115076338Y-105999568D01*
X114949651Y-106132138D01*
X114823765Y-106316680D01*
X114779633Y-106411755D01*
X114745811Y-106484619D01*
X114729710Y-106519305D01*
X114670011Y-106734570D01*
X114669462Y-106739707D01*
X114668872Y-106745229D01*
X114646273Y-106956695D01*
X114646570Y-106961848D01*
X114646570Y-106961851D01*
X114653013Y-107073595D01*
X114659132Y-107179715D01*
X114660269Y-107184762D01*
X114660270Y-107184766D01*
X114672466Y-107238880D01*
X114689964Y-107316523D01*
X114698978Y-107356521D01*
X114694442Y-107427372D01*
X114665156Y-107473317D01*
X114063757Y-108074716D01*
X114051366Y-108085583D01*
X114026004Y-108105044D01*
X114001517Y-108136956D01*
X114001514Y-108136959D01*
X114001508Y-108136967D01*
X113983962Y-108159833D01*
X113926624Y-108201700D01*
X113855753Y-108205922D01*
X113793850Y-108171158D01*
X113760569Y-108108445D01*
X113758000Y-108083129D01*
X113758000Y-101211214D01*
X113778002Y-101143093D01*
X113783175Y-101135648D01*
X115527621Y-98808087D01*
X116286575Y-97795438D01*
X121517000Y-97795438D01*
X121517337Y-97801953D01*
X121526894Y-97894057D01*
X121529788Y-97907456D01*
X121579381Y-98056107D01*
X121585555Y-98069285D01*
X121661306Y-98191698D01*
X121680144Y-98260150D01*
X121661422Y-98324117D01*
X121594996Y-98431880D01*
X121588849Y-98445061D01*
X121539509Y-98593814D01*
X121536642Y-98607190D01*
X121527328Y-98698097D01*
X121527000Y-98704514D01*
X121527000Y-98727885D01*
X121531475Y-98743124D01*
X121532865Y-98744329D01*
X121540548Y-98746000D01*
X122212885Y-98746000D01*
X122228124Y-98741525D01*
X122229329Y-98740135D01*
X122231000Y-98732452D01*
X122231000Y-98541115D01*
X122226104Y-98524441D01*
X122221000Y-98488943D01*
X122221000Y-97772115D01*
X122216525Y-97756876D01*
X122215135Y-97755671D01*
X122207452Y-97754000D01*
X121535115Y-97754000D01*
X121519876Y-97758475D01*
X121518671Y-97759865D01*
X121517000Y-97767548D01*
X121517000Y-97795438D01*
X116286575Y-97795438D01*
X116711941Y-97227885D01*
X121517000Y-97227885D01*
X121521475Y-97243124D01*
X121522865Y-97244329D01*
X121530548Y-97246000D01*
X122202885Y-97246000D01*
X122218124Y-97241525D01*
X122219329Y-97240135D01*
X122221000Y-97232452D01*
X122221000Y-96535115D01*
X122216525Y-96519876D01*
X122215135Y-96518671D01*
X122207452Y-96517000D01*
X122204562Y-96517000D01*
X122198047Y-96517337D01*
X122105943Y-96526894D01*
X122092544Y-96529788D01*
X121943893Y-96579381D01*
X121930714Y-96585555D01*
X121797827Y-96667788D01*
X121786426Y-96676824D01*
X121676014Y-96787429D01*
X121667002Y-96798840D01*
X121584996Y-96931880D01*
X121578849Y-96945061D01*
X121529509Y-97093814D01*
X121526642Y-97107190D01*
X121517328Y-97198097D01*
X121517000Y-97204514D01*
X121517000Y-97227885D01*
X116711941Y-97227885D01*
X117215222Y-96556373D01*
X117215698Y-96555741D01*
X117235423Y-96529788D01*
X117390000Y-96326397D01*
X117395873Y-96319232D01*
X117428956Y-96281772D01*
X117450620Y-96235631D01*
X117454562Y-96227932D01*
X117474982Y-96191222D01*
X117474982Y-96191221D01*
X117479345Y-96183378D01*
X117481331Y-96174626D01*
X117484442Y-96166494D01*
X117486985Y-96158176D01*
X117490799Y-96150052D01*
X117498641Y-96099685D01*
X117500265Y-96091187D01*
X117509559Y-96050228D01*
X117511546Y-96041472D01*
X117510888Y-96030747D01*
X117508237Y-95987605D01*
X117508000Y-95979879D01*
X117508000Y-94252890D01*
X120147000Y-94252890D01*
X120147300Y-94259035D01*
X120161170Y-94400481D01*
X120163553Y-94412519D01*
X120218542Y-94594651D01*
X120223217Y-94605993D01*
X120312535Y-94773977D01*
X120319322Y-94784193D01*
X120439572Y-94931634D01*
X120448216Y-94940338D01*
X120594809Y-95061610D01*
X120604980Y-95068470D01*
X120772342Y-95158962D01*
X120783647Y-95163714D01*
X120908692Y-95202422D01*
X120922795Y-95202628D01*
X120926000Y-95195873D01*
X120926000Y-93952115D01*
X120921525Y-93936876D01*
X120920135Y-93935671D01*
X120912452Y-93934000D01*
X120165115Y-93934000D01*
X120149876Y-93938475D01*
X120148671Y-93939865D01*
X120147000Y-93947548D01*
X120147000Y-94252890D01*
X117508000Y-94252890D01*
X117508000Y-93407885D01*
X120147000Y-93407885D01*
X120151475Y-93423124D01*
X120152865Y-93424329D01*
X120160548Y-93426000D01*
X120907885Y-93426000D01*
X120923124Y-93421525D01*
X120924329Y-93420135D01*
X120926000Y-93412452D01*
X120926000Y-92171014D01*
X120922027Y-92157483D01*
X120914232Y-92156363D01*
X120797068Y-92190846D01*
X120785700Y-92195439D01*
X120617089Y-92283586D01*
X120606827Y-92290302D01*
X120458557Y-92409515D01*
X120449787Y-92418103D01*
X120327501Y-92563838D01*
X120320563Y-92573969D01*
X120228906Y-92740692D01*
X120224076Y-92751962D01*
X120166548Y-92933315D01*
X120163998Y-92945309D01*
X120147393Y-93093350D01*
X120147000Y-93100374D01*
X120147000Y-93407885D01*
X117508000Y-93407885D01*
X117508000Y-90072890D01*
X120147000Y-90072890D01*
X120147300Y-90079035D01*
X120161170Y-90220481D01*
X120163553Y-90232519D01*
X120218542Y-90414651D01*
X120223217Y-90425993D01*
X120312535Y-90593977D01*
X120319322Y-90604193D01*
X120439572Y-90751634D01*
X120448216Y-90760338D01*
X120594809Y-90881610D01*
X120604980Y-90888470D01*
X120772342Y-90978962D01*
X120783647Y-90983714D01*
X120908692Y-91022422D01*
X120922795Y-91022628D01*
X120926000Y-91015873D01*
X120926000Y-91008986D01*
X121434000Y-91008986D01*
X121437973Y-91022517D01*
X121445768Y-91023637D01*
X121562932Y-90989154D01*
X121574300Y-90984561D01*
X121742911Y-90896414D01*
X121753173Y-90889698D01*
X121901443Y-90770485D01*
X121910213Y-90761897D01*
X122032499Y-90616162D01*
X122039437Y-90606031D01*
X122131094Y-90439308D01*
X122135924Y-90428038D01*
X122193452Y-90246685D01*
X122196002Y-90234691D01*
X122212607Y-90086650D01*
X122213000Y-90079626D01*
X122213000Y-89772115D01*
X122208525Y-89756876D01*
X122207135Y-89755671D01*
X122199452Y-89754000D01*
X121452115Y-89754000D01*
X121436876Y-89758475D01*
X121435671Y-89759865D01*
X121434000Y-89767548D01*
X121434000Y-91008986D01*
X120926000Y-91008986D01*
X120926000Y-89772115D01*
X120921525Y-89756876D01*
X120920135Y-89755671D01*
X120912452Y-89754000D01*
X120165115Y-89754000D01*
X120149876Y-89758475D01*
X120148671Y-89759865D01*
X120147000Y-89767548D01*
X120147000Y-90072890D01*
X117508000Y-90072890D01*
X117508000Y-89227885D01*
X120147000Y-89227885D01*
X120151475Y-89243124D01*
X120152865Y-89244329D01*
X120160548Y-89246000D01*
X120907885Y-89246000D01*
X120923124Y-89241525D01*
X120924329Y-89240135D01*
X120926000Y-89232452D01*
X120926000Y-89227885D01*
X121434000Y-89227885D01*
X121438475Y-89243124D01*
X121439865Y-89244329D01*
X121447548Y-89246000D01*
X122194885Y-89246000D01*
X122210124Y-89241525D01*
X122211329Y-89240135D01*
X122213000Y-89232452D01*
X122213000Y-89227885D01*
X128787000Y-89227885D01*
X128791475Y-89243124D01*
X128792865Y-89244329D01*
X128800548Y-89246000D01*
X129547885Y-89246000D01*
X129563124Y-89241525D01*
X129564329Y-89240135D01*
X129566000Y-89232452D01*
X129566000Y-89227885D01*
X130074000Y-89227885D01*
X130078475Y-89243124D01*
X130079865Y-89244329D01*
X130087548Y-89246000D01*
X130834885Y-89246000D01*
X130850124Y-89241525D01*
X130851329Y-89240135D01*
X130853000Y-89232452D01*
X130853000Y-88927110D01*
X130852700Y-88920965D01*
X130838830Y-88779519D01*
X130836447Y-88767481D01*
X130781458Y-88585349D01*
X130776783Y-88574007D01*
X130687465Y-88406023D01*
X130680678Y-88395807D01*
X130560428Y-88248366D01*
X130551784Y-88239662D01*
X130405191Y-88118390D01*
X130395020Y-88111530D01*
X130227658Y-88021038D01*
X130216353Y-88016286D01*
X130091308Y-87977578D01*
X130077205Y-87977372D01*
X130074000Y-87984127D01*
X130074000Y-89227885D01*
X129566000Y-89227885D01*
X129566000Y-87991014D01*
X129562027Y-87977483D01*
X129554232Y-87976363D01*
X129437068Y-88010846D01*
X129425700Y-88015439D01*
X129257089Y-88103586D01*
X129246827Y-88110302D01*
X129098557Y-88229515D01*
X129089787Y-88238103D01*
X128967501Y-88383838D01*
X128960563Y-88393969D01*
X128868906Y-88560692D01*
X128864076Y-88571962D01*
X128806548Y-88753315D01*
X128803998Y-88765309D01*
X128787393Y-88913350D01*
X128787000Y-88920374D01*
X128787000Y-89227885D01*
X122213000Y-89227885D01*
X122213000Y-88927110D01*
X122212700Y-88920965D01*
X122198830Y-88779519D01*
X122196447Y-88767481D01*
X122141458Y-88585349D01*
X122136783Y-88574007D01*
X122047465Y-88406023D01*
X122040678Y-88395807D01*
X121920428Y-88248366D01*
X121911784Y-88239662D01*
X121765191Y-88118390D01*
X121755020Y-88111530D01*
X121587658Y-88021038D01*
X121576353Y-88016286D01*
X121451308Y-87977578D01*
X121437205Y-87977372D01*
X121434000Y-87984127D01*
X121434000Y-89227885D01*
X120926000Y-89227885D01*
X120926000Y-87991014D01*
X120922027Y-87977483D01*
X120914232Y-87976363D01*
X120797068Y-88010846D01*
X120785700Y-88015439D01*
X120617089Y-88103586D01*
X120606827Y-88110302D01*
X120458557Y-88229515D01*
X120449787Y-88238103D01*
X120327501Y-88383838D01*
X120320563Y-88393969D01*
X120228906Y-88560692D01*
X120224076Y-88571962D01*
X120166548Y-88753315D01*
X120163998Y-88765309D01*
X120147393Y-88913350D01*
X120147000Y-88920374D01*
X120147000Y-89227885D01*
X117508000Y-89227885D01*
X117508000Y-88303207D01*
X117509746Y-88282303D01*
X117512264Y-88267335D01*
X117513071Y-88262539D01*
X117513224Y-88250000D01*
X117512535Y-88245188D01*
X117512534Y-88245174D01*
X117511833Y-88240280D01*
X117510949Y-88212538D01*
X117522513Y-88065594D01*
X117525606Y-88046065D01*
X117566474Y-87875838D01*
X117572583Y-87857038D01*
X117639577Y-87695301D01*
X117648547Y-87677696D01*
X117740023Y-87528420D01*
X117751644Y-87512427D01*
X117865333Y-87379314D01*
X117879314Y-87365333D01*
X118012427Y-87251644D01*
X118028422Y-87240022D01*
X118095793Y-87198737D01*
X118177696Y-87148547D01*
X118195301Y-87139577D01*
X118357043Y-87072581D01*
X118375838Y-87066474D01*
X118546066Y-87025606D01*
X118565592Y-87022513D01*
X118592819Y-87020370D01*
X118709012Y-87011226D01*
X118725881Y-87011867D01*
X118725883Y-87011695D01*
X118734859Y-87011805D01*
X118743730Y-87013186D01*
X118752632Y-87012022D01*
X118752635Y-87012022D01*
X118775251Y-87009064D01*
X118791589Y-87008000D01*
X140450672Y-87008000D01*
X140470057Y-87009500D01*
G37*
%TD.AperFunction*%
%TA.AperFunction,Conductor*%
G36*
X140510143Y-99591002D02*
G01*
X140556636Y-99644658D01*
X140568022Y-99697000D01*
X140568022Y-101143517D01*
X140572086Y-101157359D01*
X140585500Y-101159393D01*
X140592206Y-101158534D01*
X140602284Y-101156392D01*
X140806277Y-101095191D01*
X140815864Y-101091433D01*
X141007117Y-100997739D01*
X141015967Y-100992464D01*
X141189350Y-100868792D01*
X141197222Y-100862139D01*
X141348074Y-100711812D01*
X141354752Y-100703965D01*
X141479025Y-100531020D01*
X141484335Y-100522183D01*
X141507548Y-100475216D01*
X141555662Y-100423009D01*
X141624363Y-100405102D01*
X141691840Y-100427181D01*
X141736668Y-100482235D01*
X141746505Y-100530996D01*
X141747191Y-102402101D01*
X141747816Y-104106377D01*
X141727839Y-104174505D01*
X141674200Y-104221017D01*
X141603930Y-104231147D01*
X141539338Y-104201678D01*
X141501695Y-104139627D01*
X141501252Y-104139793D01*
X141500372Y-104137445D01*
X141499233Y-104135568D01*
X141498479Y-104132395D01*
X141453324Y-104011946D01*
X141444786Y-103996351D01*
X141368285Y-103894276D01*
X141355724Y-103881715D01*
X141253649Y-103805214D01*
X141238054Y-103796676D01*
X141117606Y-103751522D01*
X141102351Y-103747895D01*
X141051486Y-103742369D01*
X141044672Y-103742000D01*
X140272115Y-103742000D01*
X140256876Y-103746475D01*
X140255671Y-103747865D01*
X140254000Y-103755548D01*
X140254000Y-105539884D01*
X140258475Y-105555123D01*
X140259865Y-105556328D01*
X140267548Y-105557999D01*
X141044669Y-105557999D01*
X141051490Y-105557629D01*
X141102352Y-105552105D01*
X141117604Y-105548479D01*
X141238054Y-105503324D01*
X141253649Y-105494786D01*
X141355724Y-105418285D01*
X141368285Y-105405724D01*
X141444786Y-105303649D01*
X141453324Y-105288054D01*
X141498480Y-105167600D01*
X141499632Y-105162757D01*
X141534849Y-105101111D01*
X141597804Y-105068291D01*
X141668509Y-105074717D01*
X141724516Y-105118349D01*
X141748214Y-105191858D01*
X141749358Y-108310678D01*
X141729381Y-108378806D01*
X141675742Y-108425318D01*
X141605472Y-108435448D01*
X141540880Y-108405979D01*
X141501981Y-108341859D01*
X141501745Y-108339684D01*
X141450615Y-108203295D01*
X141363261Y-108086739D01*
X141246705Y-107999385D01*
X141110316Y-107948255D01*
X141048134Y-107941500D01*
X138951866Y-107941500D01*
X138949641Y-107941742D01*
X138880757Y-107925501D01*
X138831433Y-107874436D01*
X138817051Y-107815977D01*
X138817051Y-105683520D01*
X138837053Y-105615399D01*
X138890709Y-105568906D01*
X138949867Y-105557705D01*
X138955312Y-105558000D01*
X139727885Y-105558000D01*
X139743124Y-105553525D01*
X139744329Y-105552135D01*
X139746000Y-105544452D01*
X139746000Y-103760116D01*
X139741525Y-103744877D01*
X139740135Y-103743672D01*
X139732452Y-103742001D01*
X138955330Y-103742001D01*
X138949866Y-103742297D01*
X138880763Y-103726008D01*
X138831436Y-103674946D01*
X138817051Y-103616481D01*
X138817051Y-102354710D01*
X138837053Y-102286589D01*
X138853956Y-102265615D01*
X139319767Y-101799804D01*
X139332158Y-101788937D01*
X139350970Y-101774502D01*
X139357520Y-101769476D01*
X139382007Y-101737564D01*
X139382013Y-101737558D01*
X139450029Y-101648918D01*
X139450030Y-101648916D01*
X139455057Y-101642365D01*
X139498586Y-101537275D01*
X139516371Y-101494339D01*
X139518530Y-101477945D01*
X139532033Y-101375374D01*
X139532033Y-101375367D01*
X139536205Y-101343677D01*
X139537283Y-101335489D01*
X139533111Y-101303796D01*
X139532033Y-101287353D01*
X139532033Y-101160549D01*
X139552035Y-101092428D01*
X139605691Y-101045935D01*
X139675965Y-101035831D01*
X139715784Y-101049731D01*
X139716113Y-101049044D01*
X139730064Y-101055729D01*
X139929023Y-101131703D01*
X139938921Y-101134579D01*
X140042272Y-101155606D01*
X140056321Y-101154410D01*
X140060022Y-101144065D01*
X140060022Y-99697000D01*
X140080024Y-99628879D01*
X140133680Y-99582386D01*
X140186022Y-99571000D01*
X140442022Y-99571000D01*
X140510143Y-99591002D01*
G37*
%TD.AperFunction*%
%TA.AperFunction,Conductor*%
G36*
X136731294Y-102756978D02*
G01*
X136783306Y-102805303D01*
X136801011Y-102869709D01*
X136801011Y-103716000D01*
X136781009Y-103784121D01*
X136727353Y-103830614D01*
X136675011Y-103842000D01*
X136632115Y-103842000D01*
X136616876Y-103846475D01*
X136615671Y-103847865D01*
X136614000Y-103855546D01*
X136614000Y-106839884D01*
X136618475Y-106855123D01*
X136619865Y-106856328D01*
X136627548Y-106857999D01*
X136675011Y-106857999D01*
X136743132Y-106878001D01*
X136789625Y-106931657D01*
X136801011Y-106983999D01*
X136801011Y-107545273D01*
X136781009Y-107613394D01*
X136764114Y-107634360D01*
X136750732Y-107647742D01*
X136688425Y-107681768D01*
X136617609Y-107676705D01*
X136572542Y-107647743D01*
X136303565Y-107378766D01*
X136292698Y-107366375D01*
X136278263Y-107347563D01*
X136273237Y-107341013D01*
X136241325Y-107316526D01*
X136241322Y-107316523D01*
X136197577Y-107282956D01*
X136152679Y-107248504D01*
X136152677Y-107248503D01*
X136146126Y-107243476D01*
X135998101Y-107182162D01*
X135989914Y-107181084D01*
X135989913Y-107181084D01*
X135978708Y-107179609D01*
X135947512Y-107175502D01*
X135879135Y-107166500D01*
X135879132Y-107166500D01*
X135879124Y-107166499D01*
X135847439Y-107162328D01*
X135839250Y-107161250D01*
X135807557Y-107165422D01*
X135791114Y-107166500D01*
X135191507Y-107166500D01*
X135123386Y-107146498D01*
X135076893Y-107092842D01*
X135066292Y-107026455D01*
X135068500Y-107006773D01*
X135068500Y-106854802D01*
X135088502Y-106786681D01*
X135118932Y-106753979D01*
X135134855Y-106742045D01*
X135201359Y-106717199D01*
X135270741Y-106732252D01*
X135285982Y-106742047D01*
X135356352Y-106794786D01*
X135371946Y-106803324D01*
X135492394Y-106848478D01*
X135507649Y-106852105D01*
X135558514Y-106857631D01*
X135565328Y-106858000D01*
X136087885Y-106858000D01*
X136103124Y-106853525D01*
X136104329Y-106852135D01*
X136106000Y-106844452D01*
X136106000Y-103954669D01*
X136126002Y-103886548D01*
X136142905Y-103865574D01*
X136177564Y-103830915D01*
X136192599Y-103818074D01*
X136198106Y-103814073D01*
X136198112Y-103814068D01*
X136203456Y-103810185D01*
X136247917Y-103760806D01*
X136252458Y-103756021D01*
X136266494Y-103741985D01*
X136278988Y-103726557D01*
X136283268Y-103721547D01*
X136323306Y-103677079D01*
X136323310Y-103677074D01*
X136327726Y-103672169D01*
X136334432Y-103660554D01*
X136345632Y-103644258D01*
X136349916Y-103638967D01*
X136354069Y-103633839D01*
X136384235Y-103574637D01*
X136387368Y-103568867D01*
X136417282Y-103517055D01*
X136417284Y-103517050D01*
X136420586Y-103511331D01*
X136422627Y-103505051D01*
X136422630Y-103505043D01*
X136424730Y-103498579D01*
X136432294Y-103480317D01*
X136435385Y-103474251D01*
X136435388Y-103474242D01*
X136438384Y-103468363D01*
X136454600Y-103407846D01*
X136455578Y-103404196D01*
X136457444Y-103397894D01*
X136477976Y-103334702D01*
X136479377Y-103321372D01*
X136482980Y-103301929D01*
X136486452Y-103288971D01*
X136489929Y-103222628D01*
X136490446Y-103216059D01*
X136492178Y-103199577D01*
X136492522Y-103196306D01*
X136492522Y-103176445D01*
X136492695Y-103169850D01*
X136495827Y-103110098D01*
X136495827Y-103110094D01*
X136496172Y-103103507D01*
X136494073Y-103090253D01*
X136492522Y-103070544D01*
X136492522Y-103036193D01*
X136503400Y-102987126D01*
X136503324Y-102987101D01*
X136503569Y-102986363D01*
X136503569Y-102986361D01*
X136555418Y-102830042D01*
X136595849Y-102771682D01*
X136661413Y-102744445D01*
X136731294Y-102756978D01*
G37*
%TD.AperFunction*%
%TA.AperFunction,Conductor*%
G36*
X125500551Y-106028991D02*
G01*
X125547044Y-106082647D01*
X125557740Y-106148155D01*
X125557186Y-106153428D01*
X125557186Y-106153435D01*
X125556496Y-106160000D01*
X125557186Y-106166565D01*
X125575713Y-106342836D01*
X125576458Y-106349928D01*
X125635473Y-106531556D01*
X125638776Y-106537278D01*
X125638777Y-106537279D01*
X125652627Y-106561267D01*
X125730960Y-106696944D01*
X125735378Y-106701851D01*
X125735379Y-106701852D01*
X125843776Y-106822239D01*
X125858747Y-106838866D01*
X125920362Y-106883632D01*
X125998590Y-106940468D01*
X126013248Y-106951118D01*
X126019276Y-106953802D01*
X126019278Y-106953803D01*
X126148381Y-107011283D01*
X126187712Y-107028794D01*
X126281113Y-107048647D01*
X126368056Y-107067128D01*
X126368061Y-107067128D01*
X126374513Y-107068500D01*
X126565487Y-107068500D01*
X126571939Y-107067128D01*
X126571944Y-107067128D01*
X126658888Y-107048647D01*
X126752288Y-107028794D01*
X126791619Y-107011283D01*
X126920722Y-106953803D01*
X126920724Y-106953802D01*
X126926752Y-106951118D01*
X126941411Y-106940468D01*
X127019638Y-106883632D01*
X127079476Y-106840157D01*
X127079478Y-106840156D01*
X127081253Y-106838866D01*
X127081489Y-106839191D01*
X127142009Y-106810147D01*
X127162313Y-106808500D01*
X127883134Y-106808500D01*
X127945316Y-106801745D01*
X128081705Y-106750615D01*
X128198261Y-106663261D01*
X128275629Y-106560029D01*
X128332487Y-106517515D01*
X128403305Y-106512489D01*
X128453158Y-106535633D01*
X128482921Y-106558471D01*
X128482937Y-106558485D01*
X128532305Y-106596366D01*
X128578124Y-106631524D01*
X128667735Y-106668642D01*
X128721965Y-106691105D01*
X128777246Y-106735653D01*
X128799667Y-106803017D01*
X128782109Y-106871808D01*
X128762842Y-106896609D01*
X128315345Y-107344106D01*
X128253033Y-107378132D01*
X128226250Y-107381011D01*
X125263238Y-107381011D01*
X125195117Y-107361009D01*
X125174143Y-107344106D01*
X124979496Y-107149459D01*
X124869791Y-107039755D01*
X124858924Y-107027364D01*
X124844489Y-107008552D01*
X124839463Y-107002002D01*
X124807563Y-106977524D01*
X124807547Y-106977511D01*
X124759271Y-106940468D01*
X124712351Y-106904465D01*
X124585475Y-106851911D01*
X124530195Y-106807364D01*
X124507774Y-106740001D01*
X124525332Y-106671209D01*
X124577294Y-106622831D01*
X124586743Y-106619241D01*
X124586561Y-106618803D01*
X124725464Y-106561267D01*
X124844742Y-106469742D01*
X124936267Y-106350463D01*
X124993803Y-106211561D01*
X125002151Y-106148155D01*
X125006049Y-106118543D01*
X125034771Y-106053616D01*
X125094037Y-106014524D01*
X125130971Y-106008989D01*
X125432430Y-106008989D01*
X125500551Y-106028991D01*
G37*
%TD.AperFunction*%
%TA.AperFunction,Conductor*%
G36*
X126581001Y-103855546D02*
G01*
X126605664Y-103887257D01*
X126606232Y-103888295D01*
X126609385Y-103896705D01*
X126614768Y-103903887D01*
X126614771Y-103903891D01*
X126696739Y-104013261D01*
X126703919Y-104018642D01*
X126703920Y-104018643D01*
X126783202Y-104078062D01*
X126825717Y-104134922D01*
X126830742Y-104205740D01*
X126808463Y-104254453D01*
X126734385Y-104353295D01*
X126683255Y-104489684D01*
X126676500Y-104551866D01*
X126676500Y-104665989D01*
X126656498Y-104734110D01*
X126602842Y-104780603D01*
X126550500Y-104791989D01*
X126358903Y-104791989D01*
X126290782Y-104771987D01*
X126244289Y-104718331D01*
X126233499Y-104675522D01*
X126233499Y-104675076D01*
X126218803Y-104563439D01*
X126216125Y-104556974D01*
X126216125Y-104493026D01*
X126218803Y-104486561D01*
X126233500Y-104374925D01*
X126233499Y-104175076D01*
X126228833Y-104139627D01*
X126222943Y-104094890D01*
X126218803Y-104063439D01*
X126215864Y-104056344D01*
X126215864Y-103991416D01*
X126221531Y-103970266D01*
X126223383Y-103970762D01*
X126247828Y-103915503D01*
X126307093Y-103876411D01*
X126327576Y-103871955D01*
X126339457Y-103870391D01*
X126339461Y-103870390D01*
X126339461Y-103870391D01*
X126350663Y-103868916D01*
X126350664Y-103868916D01*
X126358851Y-103867838D01*
X126446927Y-103831356D01*
X126517514Y-103823767D01*
X126581001Y-103855546D01*
G37*
%TD.AperFunction*%
%TA.AperFunction,Conductor*%
G36*
X133686210Y-103397846D02*
G01*
X133686932Y-103397742D01*
X133689259Y-103398158D01*
X133782119Y-103407672D01*
X133788535Y-103408000D01*
X133797374Y-103408000D01*
X133865495Y-103428002D01*
X133911988Y-103481658D01*
X133922092Y-103551932D01*
X133892598Y-103616512D01*
X133886469Y-103623095D01*
X133744128Y-103765436D01*
X133681816Y-103799462D01*
X133611001Y-103794397D01*
X133554165Y-103751850D01*
X133529354Y-103685330D01*
X133531833Y-103649928D01*
X133533358Y-103642816D01*
X133542672Y-103551903D01*
X133543000Y-103545487D01*
X133543000Y-103522460D01*
X133563002Y-103454339D01*
X133616658Y-103407846D01*
X133684320Y-103398118D01*
X133684367Y-103397657D01*
X133686210Y-103397846D01*
G37*
%TD.AperFunction*%
%TA.AperFunction,Conductor*%
G36*
X129327012Y-100604444D02*
G01*
X129364332Y-100660730D01*
X129370141Y-100678605D01*
X129370813Y-100680674D01*
X129376980Y-100719611D01*
X129376980Y-101915500D01*
X129356978Y-101983621D01*
X129303322Y-102030114D01*
X129250980Y-102041500D01*
X129046941Y-102041500D01*
X128978820Y-102021498D01*
X128932327Y-101967842D01*
X128922223Y-101897568D01*
X128951717Y-101832988D01*
X128960005Y-101825266D01*
X128959731Y-101824992D01*
X128966081Y-101818642D01*
X128973261Y-101813261D01*
X129060615Y-101696705D01*
X129111745Y-101560316D01*
X129118500Y-101498134D01*
X129118500Y-100699668D01*
X129138502Y-100631547D01*
X129192158Y-100585054D01*
X129262432Y-100574950D01*
X129327012Y-100604444D01*
G37*
%TD.AperFunction*%
%TA.AperFunction,Conductor*%
G36*
X130962691Y-92098022D02*
G01*
X130983665Y-92114925D01*
X131177118Y-92308378D01*
X131211144Y-92370690D01*
X131206079Y-92441505D01*
X131202138Y-92450121D01*
X131199385Y-92453795D01*
X131148255Y-92590184D01*
X131141500Y-92652366D01*
X131141500Y-93823634D01*
X131148255Y-93885816D01*
X131199385Y-94022205D01*
X131286739Y-94138761D01*
X131403295Y-94226115D01*
X131539684Y-94277245D01*
X131545474Y-94277874D01*
X131606321Y-94312635D01*
X131639141Y-94375590D01*
X131632715Y-94446295D01*
X131589083Y-94502302D01*
X131545737Y-94522097D01*
X131539684Y-94522755D01*
X131403295Y-94573885D01*
X131286739Y-94661239D01*
X131199385Y-94777795D01*
X131196233Y-94786203D01*
X131196232Y-94786205D01*
X131169882Y-94856494D01*
X131127241Y-94913259D01*
X131096438Y-94930131D01*
X131046113Y-94949147D01*
X131046110Y-94949148D01*
X131039011Y-94951831D01*
X131032755Y-94956130D01*
X131028286Y-94958467D01*
X131018840Y-94963725D01*
X131014474Y-94966307D01*
X131007515Y-94969362D01*
X130958696Y-95006823D01*
X130953377Y-95010686D01*
X130922897Y-95031635D01*
X130902674Y-95045534D01*
X130897623Y-95051203D01*
X130862768Y-95090323D01*
X130857787Y-95095598D01*
X130513740Y-95439645D01*
X130451428Y-95473671D01*
X130380613Y-95468606D01*
X130335550Y-95439645D01*
X130303652Y-95407747D01*
X130296112Y-95399461D01*
X130292000Y-95392982D01*
X130261850Y-95364669D01*
X130242349Y-95346357D01*
X130239507Y-95343602D01*
X130234568Y-95338663D01*
X130200542Y-95276351D01*
X130205607Y-95205536D01*
X130248154Y-95148700D01*
X130265287Y-95137906D01*
X130382915Y-95076411D01*
X130393173Y-95069698D01*
X130541443Y-94950485D01*
X130550213Y-94941897D01*
X130672499Y-94796162D01*
X130679437Y-94786031D01*
X130771094Y-94619308D01*
X130775924Y-94608038D01*
X130833452Y-94426685D01*
X130836002Y-94414691D01*
X130852607Y-94266650D01*
X130853000Y-94259626D01*
X130853000Y-93952115D01*
X130848525Y-93936876D01*
X130847135Y-93935671D01*
X130839452Y-93934000D01*
X129127062Y-93934000D01*
X129058941Y-93913998D01*
X129012448Y-93860342D01*
X129002344Y-93790068D01*
X129031838Y-93725488D01*
X129040486Y-93716454D01*
X129042679Y-93714380D01*
X129042681Y-93714378D01*
X129047636Y-93709692D01*
X129064629Y-93684687D01*
X129148646Y-93561060D01*
X129148647Y-93561058D01*
X129152480Y-93555418D01*
X129172563Y-93505208D01*
X129216432Y-93449387D01*
X129289552Y-93426000D01*
X130834885Y-93426000D01*
X130850124Y-93421525D01*
X130851329Y-93420135D01*
X130853000Y-93412452D01*
X130853000Y-93107110D01*
X130852700Y-93100965D01*
X130838830Y-92959519D01*
X130836447Y-92947481D01*
X130781458Y-92765349D01*
X130776783Y-92754007D01*
X130687465Y-92586023D01*
X130680678Y-92575807D01*
X130560428Y-92428366D01*
X130551784Y-92419662D01*
X130408472Y-92301105D01*
X130368734Y-92242271D01*
X130367111Y-92171293D01*
X130404120Y-92110706D01*
X130468010Y-92079745D01*
X130488787Y-92078020D01*
X130894570Y-92078020D01*
X130962691Y-92098022D01*
G37*
%TD.AperFunction*%
%TA.AperFunction,Conductor*%
G36*
X129540121Y-94361002D02*
G01*
X129586614Y-94414658D01*
X129598000Y-94467000D01*
X129598000Y-94723000D01*
X129577998Y-94791121D01*
X129524342Y-94837614D01*
X129472000Y-94849000D01*
X128884500Y-94849000D01*
X128816379Y-94828998D01*
X128769886Y-94775342D01*
X128758500Y-94723000D01*
X128758500Y-94467000D01*
X128778502Y-94398879D01*
X128832158Y-94352386D01*
X128884500Y-94341000D01*
X129472000Y-94341000D01*
X129540121Y-94361002D01*
G37*
%TD.AperFunction*%
%TD*%
M02*
