M48
; DRILL file {KiCad (6.0.1)} date Tue Mar  8 02:05:39 2022
; FORMAT={-:-/ absolute / metric / decimal}
; #@! TF.CreationDate,2022-03-08T02:05:39-07:00
; #@! TF.GenerationSoftware,Kicad,Pcbnew,(6.0.1)
; #@! TF.FileFunction,Plated,1,2,PTH
FMAT,2
METRIC
; #@! TA.AperFunction,Plated,PTH,ComponentDrill
T1C0.300
; #@! TA.AperFunction,Plated,PTH,ViaDrill
T2C0.400
; #@! TA.AperFunction,Plated,PTH,ComponentDrill
T3C0.650
; #@! TA.AperFunction,Plated,PTH,ComponentDrill
T4C0.840
; #@! TA.AperFunction,Plated,PTH,ComponentDrill
T5C1.000
%
G90
G05
T1
X131.16Y-122.75
T2
X117.45Y-115.6
X117.79Y-100.73
X117.94Y-107.79
X120.023Y-117.852
X120.249Y-118.872
X120.3Y-116.15
X120.4Y-121.1
X121.883Y-117.85
X122.571Y-118.575
X122.813Y-116.25
X123.56Y-113.0
X124.116Y-108.135
X124.794Y-100.213
X124.972Y-106.702
X125.49Y-100.93
X125.56Y-111.0
X125.56Y-113.25
X126.25Y-116.25
X126.425Y-104.375
X126.47Y-106.16
X127.21Y-107.29
X127.31Y-113.0
X127.46Y-119.475
X128.36Y-100.049
X129.26Y-101.1
X129.335Y-119.825
X129.4Y-116.3
X130.21Y-100.325
X130.46Y-96.46
X130.535Y-113.2
X130.64Y-121.57
X131.5Y-96.75
X131.74Y-108.476
X131.75Y-121.57
X131.885Y-113.45
X131.92Y-98.35
X133.25Y-100.3
X133.759Y-103.575
X134.06Y-106.95
X134.06Y-110.25
X136.584Y-103.55
X136.662Y-108.597
X138.5Y-110.25
X140.0Y-111.0
T4
X138.577Y-115.73
X138.577Y-118.27
X139.847Y-117.0
X141.118Y-115.73
X141.118Y-118.27
T5
X116.009Y-104.45
X116.009Y-106.99
X116.009Y-109.53
X116.009Y-112.07
X135.234Y-97.285
X135.234Y-99.825
X137.774Y-97.285
X137.774Y-99.825
X140.314Y-97.285
X140.314Y-99.825
T3
X121.18Y-89.8G85X121.18Y-89.2
G05
X121.18Y-94.23G85X121.18Y-93.13
G05
X129.82Y-89.8G85X129.82Y-89.2
G05
X129.82Y-94.23G85X129.82Y-93.13
G05
T0
M30
